<?xml version="1.0" encoding="UTF-8"?>
<!DOCTYPE svg PUBLIC "-//W3C//DTD SVG 1.1//EN" "http://www.w3.org/Graphics/SVG/1.1/DTD/svg11.dtd">
<!-- Creator: CorelDRAW 2019 (64-Bit) -->
<svg xmlns="http://www.w3.org/2000/svg" xml:space="preserve" width="344px" height="426px" version="1.1" style="shape-rendering:geometricPrecision; text-rendering:geometricPrecision; image-rendering:optimizeQuality; fill-rule:evenodd; clip-rule:evenodd"
viewBox="0 0 2.75 3.41"
 xmlns:xlink="http://www.w3.org/1999/xlink"
 xmlns:xodm="http://www.corel.com/coreldraw/odm/2003">
 <defs>
  <style type="text/css">
   <![CDATA[
    .fil1 {fill:#F7D596}
    .fil0 {fill:#F7D596;fill-rule:nonzero}
   ]]>
  </style>
 </defs>
 <g id="Layer_x0020_1">
  <metadata id="CorelCorpID_0Corel-Layer"/>
  <g id="_2471568807360">
   <path class="fil0" d="M2.12 2.6c0,0.4 -0.33,0.72 -0.72,0.72 -0.4,0 -0.72,-0.32 -0.72,-0.72 0,0 0,-0.1 0,-0.21l-0.1 -0.05c0,0.13 0,0.26 0,0.26 0,0.45 0.37,0.81 0.82,0.81 0.45,0 0.81,-0.36 0.81,-0.81 0,0 0,-0.11 0,-0.23l-0.09 0.03c0,0.11 0,0.2 0,0.2z"/>
   <path class="fil1" d="M1.95 0.02c-0.32,0.09 -0.67,0.3 -0.88,0.5l-0.06 0.06 -0.16 0.51c-0.08,0.29 -0.15,0.52 -0.16,0.53 0,0 -0.15,0.07 -0.33,0.16 -0.19,0.08 -0.34,0.15 -0.35,0.16 -0.01,0.01 -0.01,0.02 -0.01,0.03 0,0.02 0.01,0.03 0.05,0.07 0.22,0.22 0.54,0.39 0.87,0.48 0.16,0.04 0.29,0.05 0.47,0.05 0.38,0 0.76,-0.09 1.09,-0.26 0.1,-0.05 0.19,-0.11 0.24,-0.15 0.03,-0.02 0.03,-0.03 0.03,-0.05 0,-0.01 0,-0.02 -0.01,-0.03 -0.01,-0.01 -0.16,-0.08 -0.34,-0.17l-0.33 -0.15 0 -0.77 -0.05 -0.06c-0.03,-0.05 -0.04,-0.06 -0.03,-0.07 0,0 0.06,-0.1 0.12,-0.2l0.12 -0.2 0.2 0c0.2,0 0.21,0 0.22,-0.01 0.02,-0.02 0.02,-0.05 0,-0.07 -0.01,-0.01 -0.15,-0.09 -0.31,-0.2 -0.24,-0.14 -0.31,-0.18 -0.32,-0.18 -0.01,0 -0.04,0.01 -0.07,0.02zm-0.03 0.11c-0.3,0.1 -0.58,0.27 -0.78,0.45l-0.04 0.04 -0.12 0.38c-0.09,0.29 -0.11,0.39 -0.11,0.39 0.01,0 0.04,0.01 0.07,0.02 0.26,0.09 0.62,0.12 0.99,0.09l0.04 0 0 -0.47 -0.11 -0.16c-0.1,-0.14 -0.12,-0.17 -0.12,-0.18 0,-0.03 0.02,-0.05 0.05,-0.05 0.03,0 0.03,0.01 0.09,0.09 0.02,0.03 0.04,0.06 0.04,0.06 0,0 0.06,-0.09 0.12,-0.2 0.07,-0.11 0.13,-0.21 0.13,-0.21 0.01,-0.01 0.04,-0.01 0.14,-0.01l0.14 -0.01 -0.22 -0.13c-0.11,-0.07 -0.21,-0.13 -0.22,-0.13 0,0 -0.04,0.01 -0.09,0.03zm-1.08 1.36c-0.02,0.03 -0.05,0.14 -0.05,0.14 0,0 0.03,0.01 0.06,0.02 0.15,0.06 0.34,0.09 0.56,0.11 0.1,0.01 0.38,0.01 0.49,0l0.07 -0.01 0 -0.16 -0.07 0.01c-0.12,0.01 -0.46,0 -0.54,0 -0.19,-0.02 -0.4,-0.07 -0.51,-0.12 -0.01,0 -0.01,0 -0.01,0.01zm-0.71 0.5l0.03 0.03c0.02,0.01 0.07,0.05 0.1,0.08 0.22,0.16 0.48,0.28 0.74,0.34 0.49,0.1 1.12,-0.01 1.56,-0.29 0.03,-0.01 0.05,-0.03 0.05,-0.03 0,0 -0.14,-0.07 -0.3,-0.14l-0.29 -0.14 -0.07 0.01c-0.21,0.02 -0.47,0.02 -0.63,0 -0.22,-0.02 -0.42,-0.07 -0.57,-0.14l-0.02 0 -0.6 0.28z"/>
  </g>
 </g>
</svg>
