<?xml version="1.0" encoding="UTF-8"?>
<!DOCTYPE svg PUBLIC "-//W3C//DTD SVG 1.1//EN" "http://www.w3.org/Graphics/SVG/1.1/DTD/svg11.dtd">
<!-- Creator: CorelDRAW 2019 (64-Bit) -->
<svg xmlns="http://www.w3.org/2000/svg" xml:space="preserve" width="234px" height="290px" version="1.1" style="shape-rendering:geometricPrecision; text-rendering:geometricPrecision; image-rendering:optimizeQuality; fill-rule:evenodd; clip-rule:evenodd"
viewBox="0 0 1.28 1.59"
 xmlns:xlink="http://www.w3.org/1999/xlink"
 xmlns:xodm="http://www.corel.com/coreldraw/odm/2003">
 <defs>
  <style type="text/css">
   <![CDATA[
    .fil1 {fill:#E6CFA3}
    .fil0 {fill:#E6CFA3;fill-rule:nonzero}
   ]]>
  </style>
 </defs>
 <g id="Layer_x0020_1">
  <metadata id="CorelCorpID_0Corel-Layer"/>
  <g id="_2471557209664">
   <path class="fil0" d="M0.98 1.21c0,0.18 -0.15,0.33 -0.33,0.33 -0.19,0 -0.33,-0.15 -0.33,-0.33 0,0 0,-0.05 0,-0.1l-0.05 -0.02c0,0.06 0,0.12 0,0.12 0,0.21 0.17,0.38 0.38,0.38 0.21,0 0.38,-0.17 0.38,-0.38 0,0 0,-0.05 0,-0.11l-0.05 0.02c0,0.05 0,0.09 0,0.09z"/>
   <path class="fil1" d="M0.91 0.01c-0.15,0.04 -0.32,0.14 -0.41,0.23l-0.03 0.03 -0.07 0.24c-0.04,0.13 -0.08,0.24 -0.08,0.24 0,0 -0.07,0.04 -0.15,0.08 -0.09,0.03 -0.16,0.07 -0.16,0.07 -0.01,0.01 -0.01,0.01 -0.01,0.02 0,0.01 0,0.01 0.02,0.03 0.11,0.1 0.26,0.18 0.41,0.22 0.07,0.02 0.13,0.02 0.22,0.02 0.17,0 0.35,-0.04 0.5,-0.12 0.05,-0.02 0.09,-0.05 0.11,-0.07 0.02,-0.01 0.02,-0.01 0.02,-0.02 0,-0.01 0,-0.01 -0.01,-0.01 0,-0.01 -0.07,-0.04 -0.16,-0.08l-0.15 -0.07 0 -0.36 -0.02 -0.03c-0.02,-0.02 -0.02,-0.02 -0.02,-0.03 0.01,0 0.03,-0.04 0.06,-0.09l0.06 -0.1 0.09 0c0.09,0 0.1,0 0.1,0 0.01,-0.01 0.01,-0.03 0,-0.03 0,-0.01 -0.07,-0.05 -0.14,-0.09 -0.11,-0.07 -0.15,-0.09 -0.15,-0.09 -0.01,0 -0.02,0 -0.03,0.01zm-0.02 0.05c-0.14,0.05 -0.27,0.12 -0.36,0.21l-0.02 0.02 -0.05 0.18c-0.04,0.13 -0.06,0.17 -0.05,0.18 0,0 0.01,0 0.03,0.01 0.12,0.04 0.29,0.05 0.46,0.04l0.02 0 0 -0.22 -0.06 -0.08c-0.04,-0.06 -0.05,-0.07 -0.05,-0.08 0,-0.01 0.01,-0.02 0.02,-0.02 0.01,0 0.02,0 0.04,0.04 0.01,0.01 0.02,0.03 0.02,0.03 0,0 0.03,-0.05 0.06,-0.1 0.03,-0.05 0.06,-0.09 0.06,-0.1 0,0 0.02,0 0.07,0l0.06 0 -0.1 -0.06c-0.06,-0.03 -0.1,-0.06 -0.1,-0.06 -0.01,0 -0.03,0 -0.05,0.01zm-0.5 0.63c-0.01,0.02 -0.02,0.07 -0.02,0.07 0,0 0.01,0 0.03,0.01 0.07,0.02 0.15,0.04 0.26,0.05 0.04,0 0.17,0 0.22,0l0.04 -0.01 0 -0.07 -0.04 0c-0.05,0.01 -0.21,0.01 -0.25,0 -0.09,-0.01 -0.18,-0.03 -0.24,-0.05 0,0 0,0 0,0zm-0.33 0.23l0.02 0.02c0,0.01 0.03,0.02 0.04,0.03 0.1,0.08 0.22,0.14 0.35,0.16 0.22,0.05 0.51,0 0.72,-0.13 0.01,-0.01 0.02,-0.01 0.02,-0.02 0,0 -0.06,-0.03 -0.14,-0.06l-0.13 -0.06 -0.03 0c-0.1,0.01 -0.22,0.01 -0.3,0 -0.1,-0.01 -0.19,-0.03 -0.26,-0.06l-0.01 -0.01 -0.28 0.13z"/>
  </g>
 </g>
</svg>
