<?xml version="1.0" encoding="UTF-8"?>
<!DOCTYPE svg PUBLIC "-//W3C//DTD SVG 1.1//EN" "http://www.w3.org/Graphics/SVG/1.1/DTD/svg11.dtd">
<!-- Creator: CorelDRAW 2019 (64-Bit) -->
<svg xmlns="http://www.w3.org/2000/svg" xml:space="preserve" width="287px" height="331px" version="1.1" style="shape-rendering:geometricPrecision; text-rendering:geometricPrecision; image-rendering:optimizeQuality; fill-rule:evenodd; clip-rule:evenodd"
viewBox="0 0 1.92 2.21"
 xmlns:xlink="http://www.w3.org/1999/xlink"
 xmlns:xodm="http://www.corel.com/coreldraw/odm/2003">
 <defs>
  <style type="text/css">
   <![CDATA[
    .fil0 {fill:none}
    .fil2 {fill:#E6CFA3}
    .fil1 {fill:#E6CFA3;fill-rule:nonzero}
   ]]>
  </style>
 </defs>
 <g id="Layer_x0020_1">
  <metadata id="CorelCorpID_0Corel-Layer"/>
  <rect class="fil0" width="1.92" height="2.21"/>
  <g id="_2471673874848">
   <path class="fil1" d="M1.38 1.62c0,0.22 -0.18,0.4 -0.41,0.4 -0.22,0 -0.41,-0.18 -0.41,-0.4 0,0 0,-0.06 0,-0.13l-0.05 -0.02c0,0.07 0,0.15 0,0.15 0,0.25 0.21,0.46 0.46,0.46 0.26,0 0.46,-0.21 0.46,-0.46 0,0 0,-0.07 0,-0.14l-0.05 0.02c0,0.06 0,0.12 0,0.12z"/>
   <path class="fil2" d="M1.29 0.14c-0.18,0.06 -0.39,0.17 -0.5,0.29l-0.04 0.03 -0.09 0.3c-0.05,0.16 -0.09,0.29 -0.09,0.29 0,0.01 -0.09,0.05 -0.19,0.1 -0.1,0.04 -0.19,0.09 -0.2,0.09 0,0 0,0.01 0,0.02 0,0.01 0,0.01 0.02,0.04 0.13,0.12 0.31,0.22 0.5,0.27 0.09,0.02 0.17,0.03 0.27,0.03 0.22,0 0.43,-0.05 0.62,-0.15 0.06,-0.03 0.11,-0.06 0.13,-0.08 0.02,-0.02 0.02,-0.02 0.02,-0.03 0,-0.01 0,-0.02 0,-0.02 -0.01,-0.01 -0.1,-0.05 -0.2,-0.1l-0.19 -0.08 0 -0.44 -0.02 -0.03c-0.02,-0.03 -0.02,-0.04 -0.02,-0.04 0,-0.01 0.03,-0.06 0.07,-0.12l0.07 -0.11 0.11 0c0.12,0 0.12,0 0.12,-0.01 0.01,-0.01 0.02,-0.03 0,-0.04 0,0 -0.08,-0.05 -0.17,-0.11 -0.14,-0.08 -0.18,-0.11 -0.18,-0.11 -0.01,0.01 -0.03,0.01 -0.04,0.01zm-0.02 0.07c-0.17,0.06 -0.33,0.15 -0.45,0.26l-0.02 0.02 -0.06 0.22c-0.05,0.16 -0.07,0.21 -0.07,0.22 0.01,0 0.02,0 0.04,0.01 0.15,0.05 0.36,0.07 0.56,0.05l0.03 0 0 -0.27 -0.06 -0.09c-0.06,-0.08 -0.07,-0.09 -0.07,-0.1 0,-0.02 0.01,-0.03 0.03,-0.03 0.01,0 0.02,0.01 0.05,0.05 0.01,0.02 0.02,0.03 0.02,0.03 0,0 0.03,-0.05 0.07,-0.11 0.04,-0.06 0.07,-0.12 0.07,-0.12 0.01,-0.01 0.02,-0.01 0.08,-0.01l0.08 0 -0.12 -0.07c-0.07,-0.04 -0.12,-0.08 -0.13,-0.08 0,0 -0.02,0.01 -0.05,0.02zm-0.62 0.77c0,0.02 -0.02,0.08 -0.02,0.08 0,0 0.01,0.01 0.03,0.01 0.09,0.04 0.2,0.06 0.32,0.07 0.06,0 0.22,0 0.28,-0.01l0.04 0 0 -0.09 -0.04 0c-0.07,0.01 -0.26,0.01 -0.31,0 -0.11,-0.01 -0.23,-0.03 -0.29,-0.06 0,0 -0.01,0 -0.01,0zm-0.4 0.29l0.02 0.01c0.01,0.01 0.04,0.03 0.06,0.05 0.12,0.09 0.27,0.16 0.42,0.19 0.28,0.06 0.63,0 0.88,-0.16 0.02,-0.01 0.03,-0.02 0.03,-0.02 0,0 -0.07,-0.04 -0.17,-0.08l-0.17 -0.08 -0.03 0.01c-0.12,0.01 -0.27,0.01 -0.36,0 -0.12,-0.02 -0.24,-0.04 -0.33,-0.08l-0.01 0 -0.34 0.16z"/>
  </g>
 </g>
</svg>
