<?xml version="1.0" encoding="UTF-8"?>
<!DOCTYPE svg PUBLIC "-//W3C//DTD SVG 1.1//EN" "http://www.w3.org/Graphics/SVG/1.1/DTD/svg11.dtd">
<!-- Creator: CorelDRAW 2019 -->
<svg xmlns="http://www.w3.org/2000/svg" xml:space="preserve" width="33.8666mm" height="33.8666mm" version="1.1" style="shape-rendering:geometricPrecision; text-rendering:geometricPrecision; image-rendering:optimizeQuality; fill-rule:evenodd; clip-rule:evenodd"
viewBox="0 0 26.78 26.78"
 xmlns:xlink="http://www.w3.org/1999/xlink">
 <defs>
  <style type="text/css">
   <![CDATA[
    .fil0 {fill:#F7D596}
   ]]>
  </style>
 </defs>
 <g id="Layer_x0020_1">
  <metadata id="CorelCorpID_0Corel-Layer"/>
  <path class="fil0" d="M23.21 0.71c-6.55,0 -13.09,0 -19.64,0l0 -0 -0.71 0 0 -0.71 -2.86 0 0 2.86 0.71 0 0 0.71 0 0c0,6.55 0,13.09 0,19.64l-0 0 0 0.71 -0.71 0 0 2.86 2.86 0 0 -0.71 0.71 0 0 -0c6.55,0 13.09,0 19.64,0l0 0 0.71 0 0 0.71 2.86 0 0 -2.86 -0.71 0 0 -0.71 -0 0c0,-6.55 0,-13.09 0,-19.64l0 0 0 -0.71 0.71 0 0 -2.86 -2.86 0 0 0.71 -0.71 0 0 0zm-22.14 2.86l0.36 0c0,6.55 0,13.09 0,19.64l-0.36 0c0,-6.55 0,-13.09 0,-19.64zm0.71 0.71l2.5 0 0 -2.5c6.07,0 12.14,0 18.21,0l0 2.5 2.5 0c0,6.07 0,12.14 0,18.21l-2.5 0 0 2.5c-6.07,0 -12.14,0 -18.21,0l0 -2.5 -2.5 0c0,-6.07 0,-12.14 0,-18.21zm21.42 21.06l0 0.36c-6.55,0 -13.09,0 -19.64,0l0 -0.36c6.55,0 13.09,0 19.64,0zm-21.82 -0.71l0.76 0.76 0.76 -0.76 -0.76 -0.76 -0.76 0.76zm0.5 0l0.25 -0.25 0.25 0.25 -0.25 0.25 -0.25 -0.25zm-1.18 -0.36l0 1.79 1.79 0 0 0.36 -2.14 0 0 -2.14 0.36 0zm3.21 0.71l-0.36 0 0 -1.78 -1.78 0 0 -0.36 2.14 0 0 2.14zm-2.86 0.71l2.14 0 0 -2.14 -2.14 0 0 2.14zm22.14 -24.63l0 0.36c-6.55,0 -13.09,0 -19.64,0l0 -0.36c6.55,0 13.09,0 19.64,0zm-21.82 1.07l0.76 -0.76 0.76 0.76 -0.76 0.76 -0.76 -0.76zm0.5 0l0.25 0.25 0.25 -0.25 -0.25 -0.25 -0.25 0.25zm-1.18 0.36l0 -1.79 1.79 0 0 -0.36 -2.14 0 0 2.14 0.36 0zm3.21 -0.71l-0.36 0 0 1.78 -1.78 0 0 0.36 2.14 0 0 -2.14zm-2.86 -0.71l2.14 0 0 2.14 -2.14 0 0 -2.14zm24.28 2.5l0.36 0c0,6.55 0,13.09 0,19.64l-0.36 0c0,-6.55 0,-13.09 0,-19.64zm0.04 21.06l-0.76 0.76 -0.76 -0.76 0.76 -0.76 0.76 0.76zm-0.5 0l-0.25 -0.25 -0.25 0.25 0.25 0.25 0.25 -0.25zm1.18 -0.36l0 1.79 -1.79 0 0 0.36 2.14 0 0 -2.14 -0.36 0zm-3.21 0.71l0.36 0 0 -1.78 1.78 0 0 -0.36 -2.14 0 0 2.14zm2.86 0.71l-2.14 0 0 -2.14 2.14 0 0 2.14zm-0.31 -23.56l-0.76 -0.76 -0.76 0.76 0.76 0.76 0.76 -0.76zm-0.5 0l-0.25 0.25 -0.25 -0.25 0.25 -0.25 0.25 0.25zm1.18 0.36l0 -1.79 -1.79 0 0 -0.36 2.14 0 0 2.14 -0.36 0zm-3.21 -0.71l0.36 0 0 1.78 1.78 0 0 0.36 -2.14 0 0 -2.14zm2.86 -0.71l-2.14 0 0 2.14 2.14 0 0 -2.14z"/>
 </g>
</svg>
