<?xml version="1.0" encoding="UTF-8"?>
<!DOCTYPE svg PUBLIC "-//W3C//DTD SVG 1.1//EN" "http://www.w3.org/Graphics/SVG/1.1/DTD/svg11.dtd">
<!-- Creator: CorelDRAW 2019 -->
<svg xmlns="http://www.w3.org/2000/svg" xml:space="preserve" width="21.1668mm" height="21.1668mm" version="1.1" style="shape-rendering:geometricPrecision; text-rendering:geometricPrecision; image-rendering:optimizeQuality; fill-rule:evenodd; clip-rule:evenodd"
viewBox="0 0 10.49 10.49"
 xmlns:xlink="http://www.w3.org/1999/xlink">
 <defs>
  <style type="text/css">
   <![CDATA[
    .fil0 {fill:#F7D596}
   ]]>
  </style>
 </defs>
 <g id="Layer_x0020_1">
  <metadata id="CorelCorpID_0Corel-Layer"/>
  <path class="fil0" d="M9.09 0.28c-2.56,0 -5.13,0 -7.69,0l0 -0 -0.28 0 0 -0.28 -1.12 0 0 1.12 0.28 0 0 0.28 0 0c0,2.56 0,5.13 0,7.69l-0 0 0 0.28 -0.28 0 0 1.12 1.12 0 0 -0.28 0.28 0 0 -0c2.56,0 5.13,0 7.69,0l0 0 0.28 0 0 0.28 1.12 0 0 -1.12 -0.28 0 0 -0.28 -0 0c0,-2.56 0,-5.13 0,-7.69l0 0 0 -0.28 0.28 0 0 -1.12 -1.12 0 0 0.28 -0.28 0 0 0zm-8.67 1.12l0.14 0c0,2.56 0,5.13 0,7.69l-0.14 0c0,-2.56 0,-5.13 0,-7.69zm0.28 0.28l0.98 0 0 -0.98c2.38,0 4.76,0 7.13,0l0 0.98 0.98 0c0,2.38 0,4.76 0,7.13l-0.98 0 0 0.98c-2.38,0 -4.76,0 -7.13,0l0 -0.98 -0.98 0c0,-2.38 0,-4.76 0,-7.13zm8.39 8.25l0 0.14c-2.56,0 -5.13,0 -7.69,0l0 -0.14c2.56,0 5.13,0 7.69,0zm-8.55 -0.28l0.3 0.3 0.3 -0.3 -0.3 -0.3 -0.3 0.3zm0.2 0l0.1 -0.1 0.1 0.1 -0.1 0.1 -0.1 -0.1zm-0.46 -0.14l0 0.7 0.7 0 0 0.14 -0.84 0 0 -0.84 0.14 0zm1.26 0.28l-0.14 0 0 -0.7 -0.7 0 0 -0.14 0.84 0 0 0.84zm-1.12 0.28l0.84 0 0 -0.84 -0.84 0 0 0.84zm8.67 -9.65l0 0.14c-2.56,0 -5.13,0 -7.69,0l0 -0.14c2.56,0 5.13,0 7.69,0zm-8.55 0.42l0.3 -0.3 0.3 0.3 -0.3 0.3 -0.3 -0.3zm0.2 0l0.1 0.1 0.1 -0.1 -0.1 -0.1 -0.1 0.1zm-0.46 0.14l0 -0.7 0.7 0 0 -0.14 -0.84 0 0 0.84 0.14 0zm1.26 -0.28l-0.14 0 0 0.7 -0.7 0 0 0.14 0.84 0 0 -0.84zm-1.12 -0.28l0.84 0 0 0.84 -0.84 0 0 -0.84zm9.51 0.98l0.14 0c0,2.56 0,5.13 0,7.69l-0.14 0c0,-2.56 0,-5.13 0,-7.69zm0.02 8.25l-0.3 0.3 -0.3 -0.3 0.3 -0.3 0.3 0.3zm-0.2 0l-0.1 -0.1 -0.1 0.1 0.1 0.1 0.1 -0.1zm0.46 -0.14l0 0.7 -0.7 0 0 0.14 0.84 0 0 -0.84 -0.14 0zm-1.26 0.28l0.14 0 0 -0.7 0.7 0 0 -0.14 -0.84 0 0 0.84zm1.12 0.28l-0.84 0 0 -0.84 0.84 0 0 0.84zm-0.12 -9.23l-0.3 -0.3 -0.3 0.3 0.3 0.3 0.3 -0.3zm-0.2 0l-0.1 0.1 -0.1 -0.1 0.1 -0.1 0.1 0.1zm0.46 0.14l0 -0.7 -0.7 0 0 -0.14 0.84 0 0 0.84 -0.14 0zm-1.26 -0.28l0.14 0 0 0.7 0.7 0 0 0.14 -0.84 0 0 -0.84zm1.12 -0.28l-0.84 0 0 0.84 0.84 0 0 -0.84z"/>
 </g>
</svg>
