<?xml version="1.0" encoding="UTF-8"?>
<!DOCTYPE svg PUBLIC "-//W3C//DTD SVG 1.1//EN" "http://www.w3.org/Graphics/SVG/1.1/DTD/svg11.dtd">
<!-- Creator: CorelDRAW 2019 -->
<svg xmlns="http://www.w3.org/2000/svg" xml:space="preserve" width="12.7mm" height="12.7mm" version="1.1" style="shape-rendering:geometricPrecision; text-rendering:geometricPrecision; image-rendering:optimizeQuality; fill-rule:evenodd; clip-rule:evenodd"
viewBox="0 0 3.78 3.78"
 xmlns:xlink="http://www.w3.org/1999/xlink">
 <defs>
  <style type="text/css">
   <![CDATA[
    .fil0 {fill:#F7D596}
   ]]>
  </style>
 </defs>
 <g id="Layer_x0020_1">
  <metadata id="CorelCorpID_0Corel-Layer"/>
  <path class="fil0" d="M3.28 0.1c-0.93,0 -1.85,0 -2.78,0l0 -0 -0.1 0 0 -0.1 -0.4 0 0 0.4 0.1 0 0 0.1 0 0c0,0.93 0,1.85 0,2.78l-0 0 0 0.1 -0.1 0 0 0.4 0.4 0 0 -0.1 0.1 0 0 -0c0.93,0 1.85,0 2.78,0l0 0 0.1 0 0 0.1 0.4 0 0 -0.4 -0.1 0 0 -0.1 -0 0c0,-0.93 0,-1.85 0,-2.78l0 0 0 -0.1 0.1 0 0 -0.4 -0.4 0 0 0.1 -0.1 0 0 0zm-3.13 0.4l0.05 0c0,0.93 0,1.85 0,2.78l-0.05 0c0,-0.93 0,-1.85 0,-2.78zm0.1 0.1l0.35 0 0 -0.35c0.86,0 1.72,0 2.57,0l0 0.35 0.35 0c0,0.86 0,1.72 0,2.57l-0.35 0 0 0.35c-0.86,0 -1.72,0 -2.57,0l0 -0.35 -0.35 0c0,-0.86 0,-1.72 0,-2.57zm3.03 2.98l0 0.05c-0.93,0 -1.85,0 -2.78,0l0 -0.05c0.93,0 1.85,0 2.78,0zm-3.08 -0.1l0.11 0.11 0.11 -0.11 -0.11 -0.11 -0.11 0.11zm0.07 0l0.04 -0.04 0.04 0.04 -0.04 0.04 -0.04 -0.04zm-0.17 -0.05l0 0.25 0.25 0 0 0.05 -0.3 0 0 -0.3 0.05 0zm0.45 0.1l-0.05 0 0 -0.25 -0.25 0 0 -0.05 0.3 0 0 0.3zm-0.4 0.1l0.3 0 0 -0.3 -0.3 0 0 0.3zm3.13 -3.48l0 0.05c-0.93,0 -1.85,0 -2.78,0l0 -0.05c0.93,0 1.85,0 2.78,0zm-3.08 0.15l0.11 -0.11 0.11 0.11 -0.11 0.11 -0.11 -0.11zm0.07 0l0.04 0.04 0.04 -0.04 -0.04 -0.04 -0.04 0.04zm-0.17 0.05l0 -0.25 0.25 0 0 -0.05 -0.3 0 0 0.3 0.05 0zm0.45 -0.1l-0.05 0 0 0.25 -0.25 0 0 0.05 0.3 0 0 -0.3zm-0.4 -0.1l0.3 0 0 0.3 -0.3 0 0 -0.3zm3.43 0.35l0.05 0c0,0.93 0,1.85 0,2.78l-0.05 0c0,-0.93 0,-1.85 0,-2.78zm0.01 2.98l-0.11 0.11 -0.11 -0.11 0.11 -0.11 0.11 0.11zm-0.07 0l-0.04 -0.04 -0.04 0.04 0.04 0.04 0.04 -0.04zm0.17 -0.05l0 0.25 -0.25 0 0 0.05 0.3 0 0 -0.3 -0.05 0zm-0.45 0.1l0.05 0 0 -0.25 0.25 0 0 -0.05 -0.3 0 0 0.3zm0.4 0.1l-0.3 0 0 -0.3 0.3 0 0 0.3zm-0.04 -3.33l-0.11 -0.11 -0.11 0.11 0.11 0.11 0.11 -0.11zm-0.07 0l-0.04 0.04 -0.04 -0.04 0.04 -0.04 0.04 0.04zm0.17 0.05l0 -0.25 -0.25 0 0 -0.05 0.3 0 0 0.3 -0.05 0zm-0.45 -0.1l0.05 0 0 0.25 0.25 0 0 0.05 -0.3 0 0 -0.3zm0.4 -0.1l-0.3 0 0 0.3 0.3 0 0 -0.3z"/>
 </g>
</svg>
