<?xml version="1.0" encoding="UTF-8"?>
<!DOCTYPE svg PUBLIC "-//W3C//DTD SVG 1.1//EN" "http://www.w3.org/Graphics/SVG/1.1/DTD/svg11.dtd">
<!-- Creator: CorelDRAW 2019 (64-Bit) -->
<svg xmlns="http://www.w3.org/2000/svg" xml:space="preserve" width="20.962mm" height="27.2484mm" version="1.1" style="shape-rendering:geometricPrecision; text-rendering:geometricPrecision; image-rendering:optimizeQuality; fill-rule:evenodd; clip-rule:evenodd"
viewBox="0 0 12.15 15.8"
 xmlns:xlink="http://www.w3.org/1999/xlink"
 xmlns:xodm="http://www.corel.com/coreldraw/odm/2003">
 <defs>
  <style type="text/css">
   <![CDATA[
    .fil0 {fill:#0E2511}
    .fil1 {fill:#F7D596}
   ]]>
  </style>
 </defs>
 <g id="Layer_x0020_1">
  <metadata id="CorelCorpID_0Corel-Layer"/>
  <g id="_2997033874320">
   <path class="fil0" d="M7.32 8.15c-0.01,0.01 -0.02,0.02 -0.03,0.03 -0.08,0.08 -0.16,0.15 -0.24,0.23 -0.17,0.17 -0.29,0.36 -0.26,0.62 0.02,0.2 0.12,0.41 0.18,0.61 0.05,0.16 0.01,0.42 0,0.6 -0.02,0.31 -0.03,0.61 -0.02,0.92 0.01,0.23 0.03,0.47 0.08,0.69 0.01,0.04 0.04,0.17 0.06,0.2 0.03,0.02 0.24,0.07 0.29,0.08 0.41,0.13 0.9,0.44 1.03,0.88 0.16,0 0.34,0.02 0.44,0.13 0.09,0.1 0.11,0.23 0.11,0.35 0.01,0.17 -0,0.33 -0,0.5 0,0.05 -0,0.1 -0.02,0.14 0.05,0.07 0.13,0.15 0.17,0.2 0.13,0.15 0.27,0.3 0.4,0.44 0.17,0.18 0.59,0.61 0.44,0.87 -0.06,0.1 -0.17,0.14 -0.28,0.14l-7.21 0c-0.11,0 -0.22,-0.03 -0.28,-0.14 -0.15,-0.26 0.27,-0.69 0.44,-0.87 0.13,-0.15 0.28,-0.29 0.4,-0.44 0.04,-0.05 0.12,-0.13 0.17,-0.2 -0.01,-0.05 -0.02,-0.09 -0.02,-0.14 0,-0.17 -0.01,-0.33 -0,-0.5 0.01,-0.13 0.02,-0.26 0.11,-0.35 0.11,-0.11 0.28,-0.13 0.44,-0.13 0.13,-0.44 0.62,-0.74 1.03,-0.88 0.05,-0.02 0.26,-0.06 0.29,-0.08 0.02,-0.03 0.05,-0.16 0.06,-0.2 0.05,-0.23 0.07,-0.46 0.08,-0.69 0.01,-0.31 -0,-0.61 -0.02,-0.92 -0.01,-0.17 -0.04,-0.43 0,-0.6 0.06,-0.2 0.16,-0.41 0.18,-0.61 0.03,-0.25 -0.09,-0.44 -0.26,-0.62 -0.08,-0.08 -0.16,-0.16 -0.24,-0.23 -0.01,-0.01 -0.02,-0.02 -0.03,-0.03 -0.03,0.07 -0.06,0.14 -0.11,0.2 -0.36,0.42 -1.18,0.3 -1.49,-0.12l-0.08 -0.11 0.06 -0.12c0.07,-0.13 0.15,-0.24 0.26,-0.34l0.09 -0.08 0.12 0.04c0.08,0.03 0.25,0.14 0.34,0.18 0.01,-0.03 0.01,-0.08 0.01,-0.1 0,-0.44 -0.9,-1.2 -1.21,-1.47 -0.24,-0.21 -0.5,-0.41 -0.74,-0.62 -0.2,-0.17 -0.4,-0.33 -0.59,-0.52 -0.09,-0.09 -0.19,-0.19 -0.28,-0.28 -0.58,-0.58 -1.1,-1.34 -1.19,-2.17 -0.07,-0.59 0.11,-1.21 0.58,-1.61 0.3,-0.25 0.68,-0.38 1.08,-0.38 0.27,0 0.44,0.05 0.62,0.15 0.01,-0.07 0.01,-0.14 0.01,-0.21 -0,-0.24 -0.01,-0.59 0.34,-0.59l6.88 0c0.36,0 0.35,0.34 0.34,0.59 -0,0.07 0,0.14 0.01,0.21 0.18,-0.1 0.34,-0.15 0.62,-0.15 0.39,0 0.77,0.12 1.08,0.38 0.47,0.39 0.64,1.01 0.58,1.61 -0.09,0.84 -0.61,1.59 -1.19,2.17 -0.09,0.09 -0.19,0.19 -0.28,0.28 -0.18,0.19 -0.39,0.35 -0.59,0.52 -0.25,0.21 -0.5,0.41 -0.74,0.62 -0.32,0.27 -1.21,1.04 -1.21,1.47 0,0.02 0,0.06 0.01,0.1 0.04,-0.02 0.09,-0.04 0.11,-0.06 0.08,-0.05 0.15,-0.1 0.24,-0.13l0.12 -0.04 0.09 0.08c0.11,0.1 0.19,0.21 0.26,0.34l0.06 0.12 -0.08 0.11c-0.31,0.42 -1.13,0.55 -1.49,0.12 -0.05,-0.06 -0.09,-0.13 -0.11,-0.2zm-4.48 -3.04c-0.08,-0.22 -0.14,-0.44 -0.2,-0.66 -0.06,-0.24 -0.11,-0.48 -0.16,-0.72 -0.02,-0.1 -0.04,-0.19 -0.06,-0.29l-0.08 -0.01c-0.22,-0.04 -0.55,-0.2 -0.59,-0.43 -0.02,-0.12 0.05,-0.32 0.07,-0.44 0.01,-0.07 0.03,-0.15 0.03,-0.23 0,-1.15 -0.85,-0.55 -0.85,0.2 0,0.47 0.34,1.01 0.62,1.37 0.14,0.18 0.76,0.8 1.22,1.22zm6.9 -1.67c-0.02,0.1 -0.04,0.19 -0.06,0.29 -0.05,0.24 -0.1,0.48 -0.16,0.72 -0.06,0.22 -0.12,0.44 -0.2,0.66 0.46,-0.42 1.07,-1.04 1.21,-1.22 0.28,-0.36 0.62,-0.9 0.62,-1.37 0,-0.75 -0.85,-1.35 -0.85,-0.2 0,0.08 0.01,0.15 0.03,0.23 0.02,0.12 0.09,0.32 0.07,0.44 -0.04,0.24 -0.37,0.4 -0.59,0.43l-0.08 0.01z"/>
   <path class="fil1" d="M8.76 8.1c-0.06,-0.11 -0.12,-0.2 -0.21,-0.29 -0.07,0.02 -0.14,0.07 -0.2,0.11 -0.28,0.17 -0.43,0.13 -0.43,-0.22 0,-0.54 0.9,-1.3 1.29,-1.63 0.25,-0.21 0.5,-0.41 0.75,-0.62 0.2,-0.16 0.39,-0.33 0.57,-0.51 0.09,-0.09 0.19,-0.19 0.28,-0.28 0.55,-0.54 1.04,-1.26 1.13,-2.05 0.06,-0.52 -0.09,-1.07 -0.5,-1.42 -0.26,-0.22 -0.6,-0.33 -0.94,-0.33 -0.34,0 -0.48,0.09 -0.75,0.28l-0.05 0.03 -0 -0.06c-0,-0.18 -0.04,-0.35 -0.04,-0.53 0,-0.11 0.05,-0.37 -0.13,-0.37l-6.88 0c-0.18,0 -0.13,0.26 -0.13,0.37 0,0.18 -0.04,0.35 -0.04,0.53l-0 0.06 -0.05 -0.03c-0.28,-0.18 -0.41,-0.28 -0.75,-0.28 -0.34,0 -0.68,0.11 -0.94,0.33 -0.42,0.35 -0.56,0.9 -0.5,1.42 0.09,0.78 0.59,1.5 1.13,2.05 0.09,0.09 0.19,0.19 0.28,0.28 0.18,0.18 0.38,0.34 0.57,0.51 0.25,0.21 0.5,0.41 0.75,0.62 0.39,0.33 1.29,1.1 1.29,1.63 0,0.1 -0.01,0.27 -0.12,0.31 -0.15,0.06 -0.36,-0.15 -0.51,-0.2 -0.09,0.08 -0.16,0.18 -0.21,0.29 0.23,0.31 0.89,0.43 1.16,0.11 0.09,-0.1 0.12,-0.27 0.15,-0.4l0.01 -0.04 0.04 0.03c0.09,0.07 0.18,0.16 0.26,0.24 0.08,0.08 0.16,0.16 0.24,0.24 0.22,0.22 0.35,0.47 0.32,0.79 -0.02,0.23 -0.13,0.43 -0.19,0.65 -0.03,0.11 -0,0.4 0.01,0.53 0.02,0.31 0.03,0.62 0.02,0.94 -0.01,0.25 -0.03,0.49 -0.09,0.73 -0.1,0.41 -0.14,0.32 -0.49,0.44 -0.37,0.12 -0.88,0.43 -0.91,0.86l-0 0.03 -0.03 0c-0.11,0 -0.36,-0.01 -0.44,0.07 -0.05,0.05 -0.05,0.15 -0.06,0.22 -0.01,0.16 0,0.33 0,0.49 0,0.03 0,0.07 0.02,0.1 0.01,0.02 0.02,0.03 0.02,0.04 0.02,0.06 -0.19,0.29 -0.24,0.34 -0.13,0.16 -0.27,0.3 -0.41,0.45 -0.08,0.08 -0.48,0.51 -0.42,0.63 0.02,0.03 0.07,0.03 0.1,0.03l7.21 0c0.03,0 0.08,-0 0.1,-0.03 0.06,-0.11 -0.34,-0.54 -0.42,-0.63 -0.14,-0.15 -0.28,-0.29 -0.41,-0.45 -0.04,-0.05 -0.25,-0.28 -0.24,-0.34 0,-0.02 0.02,-0.03 0.02,-0.04 0.01,-0.03 0.02,-0.07 0.02,-0.1 0,-0.16 0.01,-0.33 0,-0.49 -0,-0.07 -0.01,-0.17 -0.06,-0.22 -0.08,-0.08 -0.33,-0.07 -0.44,-0.07l-0.03 0 -0 -0.03c-0.04,-0.43 -0.54,-0.74 -0.91,-0.86 -0.35,-0.12 -0.4,-0.03 -0.49,-0.44 -0.06,-0.24 -0.08,-0.49 -0.09,-0.73 -0.01,-0.31 0,-0.62 0.02,-0.94 0.01,-0.13 0.04,-0.42 0.01,-0.53 -0.06,-0.22 -0.16,-0.42 -0.19,-0.65 -0.03,-0.32 0.1,-0.57 0.32,-0.79 0.08,-0.08 0.16,-0.16 0.24,-0.24 0.08,-0.08 0.16,-0.17 0.26,-0.24l0.04 -0.03 0.01 0.04c0.03,0.13 0.06,0.29 0.15,0.4 0.27,0.32 0.93,0.2 1.16,-0.11zm-6.07 -7.41l6.78 0c0,-0.09 0,-0.18 0,-0.26l0 -0.03 -6.78 0 0 0.03c0,0.09 0,0.18 0,0.26zm6.78 0.2l-6.78 0c-0,0.05 -0.01,0.11 -0.02,0.16l0 0 6.82 0 -0 -0c-0.01,-0.05 -0.01,-0.11 -0.02,-0.16zm0.04 0.36l-6.86 0c-0.01,0.13 -0.01,0.26 0,0.39 0.04,0.5 0.07,1 0.13,1.49 0.07,0.58 0.19,1.14 0.38,1.68 0.15,0.44 0.34,0.89 0.58,1.29 0.16,0.26 1.1,1.7 1.37,1.7l1.95 0c0.26,0 1.21,-1.44 1.37,-1.7 0.24,-0.4 0.42,-0.85 0.58,-1.29 0.19,-0.55 0.32,-1.11 0.38,-1.68 0.06,-0.5 0.08,-1 0.13,-1.49 0.01,-0.13 0.01,-0.26 0,-0.39zm-6.15 13.33l5.44 0c-0.12,-0.15 -0.27,-0.32 -0.37,-0.32l-4.7 0c-0.1,0 -0.25,0.17 -0.37,0.32zm5.6 0.2l-5.75 0 -0.02 0.02c-0.04,0.05 -0.08,0.09 -0.12,0.14l6.03 0c-0.04,-0.04 -0.08,-0.09 -0.12,-0.14l-0.02 -0.02zm0.33 0.36l-6.41 0c-0.07,0.07 -0.13,0.14 -0.18,0.22l-0.03 0.05 6.83 0 -0.03 -0.05c-0.05,-0.08 -0.12,-0.15 -0.18,-0.22zm-2.76 -5.43l-0.88 0 0 -0.03c0,-0.18 0.08,-0.35 0.1,-0.52 0.04,-0.25 0,-0.48 -0.11,-0.7 -0.08,-0.15 -0.21,-0.27 -0.31,-0.41l-0.03 -0.05 1.58 0 -0.03 0.05c-0.1,0.14 -0.23,0.26 -0.31,0.41 -0.12,0.23 -0.15,0.45 -0.11,0.7 0.03,0.17 0.1,0.35 0.1,0.52l0 0.03zm0.16 2.47l-1.21 0 0 -0.03c0.01,-0.3 0.12,-0.59 0.12,-0.89l0 -0.97c0,-0.12 -0.04,-0.24 -0.04,-0.36l-0 -0.03 0.03 0c0.16,0 0.33,-0 0.49,-0.01 0.16,0.01 0.33,0.01 0.49,0.01l0.03 0 -0 0.03c-0,0.12 -0.04,0.24 -0.04,0.36l0 0.97c0,0.3 0.11,0.59 0.12,0.89l0 0.03zm1.39 1.05l-3.99 0 0.02 -0.04c0.16,-0.33 0.22,-0.41 0.55,-0.57 0.25,-0.12 0.61,-0.26 0.89,-0.26 0.18,0 0.35,-0 0.53,-0.01 0.18,0 0.35,0.01 0.53,0.01 0.28,0 0.64,0.14 0.89,0.26 0.34,0.16 0.4,0.24 0.55,0.57l0.02 0.04zm0.51 0.85l-5 0 0 -0.67 5 0 0 0.67zm-6.2 -10.85l0.19 -0.37 0.01 0.12c0.01,0.24 0.06,0.49 0.11,0.73 0.05,0.24 0.1,0.48 0.16,0.71 0.11,0.44 0.26,0.86 0.47,1.26l0.03 0.06 -0.07 -0.02c-0.25,-0.07 -1.61,-1.41 -1.82,-1.68 -0.31,-0.4 -0.67,-0.97 -0.67,-1.5 0,-1.07 1.27,-1.61 1.27,-0.2 0,0.09 -0.01,0.18 -0.03,0.26 -0.01,0.07 -0.08,0.32 -0.07,0.37 0.02,0.13 0.29,0.24 0.41,0.26zm-1.71 -1.68c0.3,-0.4 0.92,-0.65 1.39,-0.4 0.36,0.18 0.46,0.58 0.44,0.95l-0.15 0.71c-0.06,0.15 0.01,0.11 -0.16,0.16l-0.04 0.01 0 -0.04c0.01,-0.1 0.02,-0.2 0.04,-0.3 0.03,-0.18 0.05,-0.36 0.04,-0.55 -0.01,-0.31 -0.13,-0.64 -0.45,-0.75 -0.36,-0.12 -0.75,0.1 -0.96,0.39 -0.34,0.48 -0.26,1.1 -0.03,1.6 0.1,0.22 0.21,0.42 0.35,0.61 0.02,0.03 0.28,0.4 0.63,0.76 0.5,0.5 1.13,1.03 1.13,1.06 0,0.02 -0,0.03 -0.01,0.04 -0.04,0.03 -0.61,-0.41 -1.08,-0.88 -0.42,-0.42 -0.73,-0.85 -0.75,-0.88 -0.22,-0.31 -0.41,-0.65 -0.53,-1.01 -0.17,-0.5 -0.2,-1.06 0.14,-1.49zm9.11 1.68c0.12,-0.02 0.39,-0.14 0.41,-0.26 0.01,-0.06 -0.05,-0.3 -0.07,-0.37 -0.02,-0.09 -0.03,-0.18 -0.03,-0.26 0,-1.41 1.27,-0.87 1.27,0.2 0,0.52 -0.36,1.1 -0.67,1.5 -0.21,0.27 -1.57,1.62 -1.82,1.68l-0.07 0.02 0.03 -0.06c0.21,-0.4 0.36,-0.83 0.47,-1.26 0.06,-0.24 0.11,-0.48 0.16,-0.71 0.05,-0.24 0.1,-0.48 0.11,-0.73l0.01 -0.12 0.19 0.37zm1.71 -1.68c0.12,0.16 0.2,0.34 0.24,0.54 0.06,0.32 0,0.65 -0.1,0.95 -0.12,0.36 -0.31,0.7 -0.53,1.01 -0.02,0.03 -0.28,0.41 -0.64,0.76 -0.46,0.45 -1.05,0.88 -1.1,0.85 -0.01,-0.01 -0.02,-0.03 -0.01,-0.04 0.01,-0.03 0.56,-0.42 1,-0.85 0.37,-0.36 0.65,-0.78 0.67,-0.82 0.12,-0.2 0.25,-0.4 0.35,-0.61 0.23,-0.5 0.31,-1.12 -0.03,-1.6 -0.21,-0.29 -0.6,-0.52 -0.96,-0.39 -0.32,0.11 -0.44,0.44 -0.45,0.75 -0.01,0.19 0.01,0.37 0.04,0.55 0.02,0.1 0.03,0.2 0.04,0.3l0 0.04 -0.04 -0.01c-0.18,-0.05 -0.1,-0.02 -0.16,-0.17l-0.14 -0.71c-0.02,-0.37 0.09,-0.77 0.44,-0.95 0.47,-0.24 1.09,0.01 1.39,0.4z"/>
  </g>
 </g>
</svg>
