<?xml version="1.0" encoding="UTF-8"?>
<!DOCTYPE svg PUBLIC "-//W3C//DTD SVG 1.1//EN" "http://www.w3.org/Graphics/SVG/1.1/DTD/svg11.dtd">
<!-- Creator: CorelDRAW 2019 (64-Bit) -->
<svg xmlns="http://www.w3.org/2000/svg" xml:space="preserve" width="320px" height="415px" version="1.1" style="shape-rendering:geometricPrecision; text-rendering:geometricPrecision; image-rendering:optimizeQuality; fill-rule:evenodd; clip-rule:evenodd"
viewBox="0 0 2.44 3.17"
 xmlns:xlink="http://www.w3.org/1999/xlink"
 xmlns:xodm="http://www.corel.com/coreldraw/odm/2003">
 <defs>
  <style type="text/css">
   <![CDATA[
    .fil0 {fill:#0E2511}
    .fil1 {fill:#F7D596}
   ]]>
  </style>
 </defs>
 <g id="Layer_x0020_1">
  <metadata id="CorelCorpID_0Corel-Layer"/>
  <g id="_2471472487680">
   <g id="_2997033874320">
    <path class="fil0" d="M1.47 1.64c0,0 0,0 0,0 -0.02,0.02 -0.04,0.03 -0.05,0.05 -0.04,0.03 -0.06,0.07 -0.05,0.12 0,0.04 0.02,0.08 0.03,0.12 0.01,0.04 0,0.09 0,0.12 0,0.07 0,0.13 0,0.19 0,0.05 0,0.09 0.01,0.14 0.01,0.01 0.01,0.03 0.02,0.04 0,0 0.04,0.01 0.05,0.01 0.09,0.03 0.18,0.09 0.21,0.18 0.03,0 0.07,0 0.09,0.03 0.02,0.02 0.02,0.04 0.02,0.07 0,0.03 0,0.06 0,0.1 0,0.01 0,0.02 0,0.03 0.01,0.01 0.02,0.03 0.03,0.04 0.03,0.03 0.06,0.06 0.08,0.08 0.04,0.04 0.12,0.13 0.09,0.18 -0.01,0.02 -0.03,0.03 -0.06,0.03l-1.44 0c-0.03,0 -0.05,-0.01 -0.06,-0.03 -0.03,-0.05 0.05,-0.14 0.09,-0.18 0.02,-0.03 0.05,-0.05 0.08,-0.08 0.01,-0.01 0.02,-0.03 0.03,-0.04 0,-0.01 0,-0.02 0,-0.03 0,-0.04 0,-0.07 0,-0.1 0,-0.03 0,-0.06 0.02,-0.07 0.02,-0.03 0.06,-0.03 0.09,-0.03 0.03,-0.09 0.12,-0.15 0.21,-0.18 0.01,0 0.05,-0.01 0.05,-0.01 0.01,-0.01 0.01,-0.03 0.02,-0.04 0.01,-0.05 0.01,-0.09 0.01,-0.14 0,-0.06 0,-0.12 0,-0.19 0,-0.03 -0.01,-0.08 0,-0.12 0.01,-0.04 0.03,-0.08 0.03,-0.12 0.01,-0.05 -0.01,-0.09 -0.05,-0.12 -0.01,-0.02 -0.03,-0.03 -0.05,-0.05 0,0 0,0 0,0 -0.01,0.01 -0.01,0.02 -0.02,0.04 -0.08,0.08 -0.24,0.06 -0.3,-0.03l-0.02 -0.02 0.01 -0.02c0.02,-0.03 0.03,-0.05 0.06,-0.07l0.01 -0.02 0.03 0.01c0.01,0.01 0.05,0.03 0.07,0.04 0,-0.01 0,-0.02 0,-0.02 0,-0.09 -0.18,-0.25 -0.25,-0.3 -0.04,-0.04 -0.1,-0.08 -0.14,-0.12 -0.04,-0.04 -0.08,-0.07 -0.12,-0.11 -0.02,-0.02 -0.04,-0.04 -0.06,-0.05 -0.11,-0.12 -0.22,-0.27 -0.24,-0.44 -0.01,-0.12 0.03,-0.24 0.12,-0.32 0.06,-0.05 0.14,-0.08 0.22,-0.08 0.05,0 0.08,0.01 0.12,0.03 0,-0.01 0,-0.03 0,-0.04 0,-0.05 0,-0.12 0.07,-0.12l1.38 0c0.07,0 0.07,0.07 0.07,0.12 0,0.01 0,0.03 0,0.04 0.04,-0.02 0.07,-0.03 0.13,-0.03 0.07,0 0.15,0.02 0.21,0.08 0.1,0.07 0.13,0.2 0.12,0.32 -0.02,0.17 -0.12,0.32 -0.24,0.44 -0.02,0.01 -0.04,0.03 -0.06,0.05 -0.03,0.04 -0.07,0.07 -0.11,0.11 -0.05,0.04 -0.1,0.08 -0.15,0.12 -0.07,0.05 -0.25,0.21 -0.25,0.3 0,0 0,0.01 0.01,0.02 0,-0.01 0.01,-0.01 0.02,-0.02 0.01,-0.01 0.03,-0.02 0.05,-0.02l0.02 -0.01 0.02 0.02c0.02,0.02 0.04,0.04 0.05,0.06l0.01 0.03 -0.01 0.02c-0.07,0.08 -0.23,0.11 -0.3,0.02 -0.01,-0.01 -0.02,-0.02 -0.02,-0.04l-0.01 0.01zm-0.9 -0.61c-0.01,-0.05 -0.03,-0.09 -0.04,-0.14 -0.01,-0.05 -0.02,-0.09 -0.03,-0.14 0,-0.02 -0.01,-0.04 -0.01,-0.06l-0.02 0c-0.04,-0.01 -0.11,-0.04 -0.12,-0.09 0,-0.02 0.01,-0.06 0.02,-0.09 0,-0.01 0,-0.03 0,-0.04 0,-0.23 -0.17,-0.11 -0.17,0.04 0,0.09 0.07,0.2 0.13,0.27 0.03,0.04 0.15,0.16 0.24,0.25l0 0zm1.39 -0.34c-0.01,0.02 -0.01,0.04 -0.01,0.06 -0.01,0.05 -0.02,0.09 -0.04,0.14 -0.01,0.05 -0.02,0.09 -0.04,0.14 0.1,-0.09 0.22,-0.21 0.25,-0.25 0.05,-0.07 0.12,-0.18 0.12,-0.27 0,-0.15 -0.17,-0.28 -0.17,-0.04 0,0.01 0,0.03 0.01,0.04 0,0.03 0.01,0.07 0.01,0.09 -0.01,0.05 -0.07,0.08 -0.12,0.09l-0.01 0 0 0z"/>
    <path class="fil1" d="M1.76 1.63c-0.01,-0.03 -0.02,-0.04 -0.04,-0.06 -0.02,0 -0.03,0.01 -0.04,0.02 -0.06,0.03 -0.09,0.03 -0.09,-0.04 0,-0.11 0.18,-0.27 0.26,-0.33 0.05,-0.04 0.1,-0.08 0.15,-0.13 0.04,-0.03 0.08,-0.06 0.12,-0.1 0.01,-0.02 0.03,-0.04 0.05,-0.05 0.11,-0.11 0.21,-0.26 0.23,-0.42 0.01,-0.1 -0.02,-0.21 -0.1,-0.28 -0.05,-0.05 -0.12,-0.07 -0.19,-0.07 -0.07,0 -0.1,0.02 -0.15,0.06l-0.01 0 0 -0.01c0,-0.03 -0.01,-0.07 -0.01,-0.1 0,-0.03 0.01,-0.08 -0.02,-0.08l-1.39 0c-0.03,0 -0.02,0.05 -0.02,0.08 0,0.03 -0.01,0.07 -0.01,0.1l0 0.01 -0.01 0c-0.06,-0.04 -0.08,-0.06 -0.15,-0.06 -0.07,0 -0.14,0.02 -0.19,0.07 -0.08,0.07 -0.11,0.18 -0.1,0.28 0.02,0.16 0.12,0.3 0.23,0.42 0.02,0.01 0.04,0.03 0.05,0.05 0.04,0.04 0.08,0.07 0.12,0.1 0.05,0.05 0.1,0.09 0.15,0.13 0.08,0.06 0.26,0.22 0.26,0.33 0,0.02 0,0.05 -0.03,0.06 -0.03,0.01 -0.07,-0.03 -0.1,-0.04 -0.02,0.01 -0.03,0.03 -0.04,0.06 0.05,0.06 0.18,0.08 0.23,0.02 0.02,-0.02 0.03,-0.06 0.03,-0.08l0 -0.01 0.01 0.01c0.02,0.01 0.04,0.03 0.05,0.04 0.02,0.02 0.04,0.04 0.05,0.05 0.05,0.05 0.07,0.1 0.07,0.16 -0.01,0.05 -0.03,0.09 -0.04,0.13 -0.01,0.02 0,0.08 0,0.11 0,0.06 0.01,0.12 0,0.19 0,0.05 0,0.09 -0.01,0.14 -0.02,0.08 -0.03,0.07 -0.1,0.09 -0.08,0.02 -0.18,0.09 -0.18,0.17l0 0.01 -0.01 0c-0.02,0 -0.07,0 -0.09,0.01 -0.01,0.01 -0.01,0.03 -0.01,0.05 0,0.03 0,0.06 0,0.1 0,0 0,0.01 0,0.02 0.01,0 0.01,0 0.01,0 0,0.02 -0.04,0.06 -0.05,0.07 -0.03,0.03 -0.06,0.06 -0.08,0.09 -0.02,0.02 -0.1,0.1 -0.09,0.13 0.01,0 0.02,0 0.02,0l1.45 0c0.01,0 0.02,0 0.02,0 0.01,-0.02 -0.07,-0.11 -0.08,-0.13 -0.03,-0.03 -0.06,-0.06 -0.09,-0.09 -0.01,-0.01 -0.05,-0.05 -0.05,-0.07 0,0 0.01,0 0.01,0 0,-0.01 0,-0.02 0,-0.02 0,-0.04 0,-0.07 0,-0.1 0,-0.02 0,-0.04 -0.01,-0.05 -0.02,-0.01 -0.07,-0.01 -0.09,-0.01l0 0 0 -0.01c-0.01,-0.08 -0.11,-0.15 -0.19,-0.17 -0.07,-0.02 -0.08,-0.01 -0.09,-0.09 -0.02,-0.05 -0.02,-0.1 -0.02,-0.14 0,-0.07 0,-0.13 0,-0.19 0,-0.03 0.01,-0.09 0,-0.11 -0.01,-0.04 -0.03,-0.08 -0.03,-0.13 -0.01,-0.06 0.02,-0.11 0.06,-0.16 0.02,-0.01 0.03,-0.03 0.05,-0.05 0.01,-0.01 0.03,-0.03 0.05,-0.04l0.01 -0.01 0 0.01c0.01,0.02 0.01,0.06 0.03,0.08 0.05,0.06 0.19,0.04 0.23,-0.02l0 0zm-1.22 -1.49l1.36 0c0,-0.02 0,-0.04 0,-0.05l0 -0.01 -1.36 0 0 0.01c0,0.01 0,0.03 0,0.05zm1.36 0.04l-1.36 0c0,0.01 0,0.02 0,0.03l0 0 1.37 0 0 0c0,-0.01 0,-0.02 -0.01,-0.03zm0.01 0.07l-1.38 0c0,0.03 0,0.05 0,0.08 0.01,0.1 0.02,0.2 0.03,0.3 0.01,0.11 0.04,0.23 0.08,0.34 0.03,0.08 0.07,0.17 0.11,0.25 0.04,0.06 0.22,0.35 0.28,0.35l0.39 0c0.05,0 0.24,-0.29 0.27,-0.35 0.05,-0.08 0.09,-0.17 0.12,-0.25 0.04,-0.12 0.07,-0.23 0.08,-0.34 0.01,-0.1 0.01,-0.2 0.02,-0.3 0.01,-0.03 0.01,-0.05 0,-0.08l0 0zm-1.23 2.68l1.09 0c-0.03,-0.03 -0.06,-0.07 -0.08,-0.07l-0.94 0c-0.02,0 -0.05,0.04 -0.07,0.07zm1.12 0.04l-1.15 0 -0.01 0c0,0.01 -0.01,0.02 -0.02,0.03l1.21 0c-0.01,-0.01 -0.02,-0.02 -0.03,-0.03l0 0 0 0zm0.07 0.07l-1.29 0c-0.01,0.01 -0.03,0.03 -0.04,0.04l0 0.01 1.37 0 -0.01 -0.01c-0.01,-0.01 -0.02,-0.03 -0.03,-0.04l0 0zm-0.56 -1.09l-0.17 0 0 -0.01c0,-0.03 0.01,-0.07 0.02,-0.1 0,-0.05 0,-0.1 -0.03,-0.14 -0.01,-0.03 -0.04,-0.06 -0.06,-0.08l0 -0.01 0.31 0 0 0.01c-0.02,0.02 -0.05,0.05 -0.06,0.08 -0.03,0.04 -0.03,0.09 -0.03,0.14 0.01,0.03 0.02,0.07 0.02,0.1l0 0.01 0 0zm0.04 0.49l-0.25 0 0 0c0,-0.06 0.03,-0.12 0.03,-0.18l0 -0.2c0,-0.02 -0.01,-0.04 -0.01,-0.07l0 0 0 0c0.04,0 0.07,0 0.1,-0.01 0.04,0.01 0.07,0.01 0.1,0.01l0.01 0 0 0c0,0.03 -0.01,0.05 -0.01,0.07l0 0.2c0,0.06 0.02,0.12 0.02,0.18l0 0 0.01 0zm0.27 0.21l-0.8 0 0.01 0c0.03,-0.07 0.04,-0.09 0.11,-0.12 0.05,-0.02 0.12,-0.05 0.18,-0.05 0.03,0 0.07,0 0.1,0 0.04,0 0.07,0 0.11,0 0.06,0 0.13,0.03 0.18,0.05 0.07,0.03 0.08,0.05 0.11,0.12l0 0 0 0zm0.11 0.18l-1.01 0 0 -0.14 1.01 0 0 0.14zm-1.25 -2.18l0.04 -0.08 0 0.03c0,0.05 0.01,0.1 0.02,0.14 0.01,0.05 0.02,0.1 0.04,0.15 0.02,0.09 0.05,0.17 0.09,0.25l0.01 0.01 -0.02 0c-0.05,-0.02 -0.32,-0.29 -0.36,-0.34 -0.06,-0.08 -0.14,-0.19 -0.14,-0.3 0,-0.22 0.26,-0.32 0.26,-0.04 0,0.02 0,0.04 -0.01,0.05 0,0.02 -0.01,0.07 -0.01,0.08 0,0.02 0.06,0.04 0.08,0.05l0 0zm-0.34 -0.34c0.06,-0.08 0.18,-0.13 0.28,-0.08 0.07,0.04 0.09,0.12 0.09,0.19l-0.03 0.14c-0.02,0.03 0,0.03 -0.04,0.04l0 0 0 -0.01c0,-0.02 0,-0.04 0,-0.06 0.01,-0.04 0.01,-0.07 0.01,-0.11 0,-0.06 -0.02,-0.13 -0.09,-0.15 -0.07,-0.03 -0.15,0.02 -0.19,0.08 -0.07,0.09 -0.05,0.22 -0.01,0.32 0.02,0.04 0.05,0.08 0.07,0.12 0.01,0.01 0.06,0.08 0.13,0.15 0.1,0.1 0.23,0.21 0.23,0.22 0,0 0,0 -0.01,0 0,0.01 -0.12,-0.08 -0.21,-0.17 -0.09,-0.09 -0.15,-0.17 -0.15,-0.18 -0.05,-0.06 -0.08,-0.13 -0.11,-0.2 -0.03,-0.1 -0.04,-0.21 0.03,-0.3l0 0zm1.83 0.34c0.02,-0.01 0.08,-0.03 0.08,-0.05 0,-0.02 -0.01,-0.06 -0.01,-0.08 -0.01,-0.02 -0.01,-0.03 -0.01,-0.05 0,-0.28 0.25,-0.18 0.25,0.04 0,0.1 -0.07,0.22 -0.13,0.3 -0.04,0.05 -0.32,0.33 -0.37,0.34l-0.01 0 0.01 -0.01c0.04,-0.08 0.07,-0.17 0.09,-0.25 0.01,-0.05 0.02,-0.1 0.03,-0.15 0.01,-0.04 0.02,-0.09 0.03,-0.14l0 -0.03 0.04 0.08 0 0zm0.34 -0.34c0.02,0.03 0.04,0.07 0.05,0.11 0.01,0.06 0,0.13 -0.02,0.19 -0.03,0.07 -0.06,0.14 -0.11,0.2 0,0.01 -0.05,0.08 -0.13,0.16 -0.09,0.09 -0.21,0.17 -0.22,0.17 0,-0.01 0,-0.01 0,-0.01 0,-0.01 0.11,-0.09 0.2,-0.17 0.08,-0.08 0.13,-0.16 0.14,-0.17 0.02,-0.04 0.05,-0.08 0.07,-0.12 0.04,-0.1 0.06,-0.22 -0.01,-0.32 -0.04,-0.06 -0.12,-0.11 -0.19,-0.08 -0.07,0.02 -0.09,0.09 -0.09,0.15 0,0.04 0,0.08 0.01,0.11 0,0.02 0,0.04 0,0.06l0 0.01 0 0c-0.04,-0.01 -0.02,-0.01 -0.04,-0.04l-0.02 -0.14c-0.01,-0.07 0.01,-0.15 0.08,-0.19 0.1,-0.05 0.22,0 0.28,0.08l0 0z"/>
   </g>
  </g>
 </g>
</svg>
