<?xml version="1.0" encoding="UTF-8"?>
<!DOCTYPE svg PUBLIC "-//W3C//DTD SVG 1.1//EN" "http://www.w3.org/Graphics/SVG/1.1/DTD/svg11.dtd">
<!-- Creator: CorelDRAW 2019 (64-Bit) -->
<svg xmlns="http://www.w3.org/2000/svg" xml:space="preserve" width="7.2993mm" height="9.4883mm" version="1.1" style="shape-rendering:geometricPrecision; text-rendering:geometricPrecision; image-rendering:optimizeQuality; fill-rule:evenodd; clip-rule:evenodd"
viewBox="0 0 1.48 1.92"
 xmlns:xlink="http://www.w3.org/1999/xlink"
 xmlns:xodm="http://www.corel.com/coreldraw/odm/2003">
 <defs>
  <style type="text/css">
   <![CDATA[
    .fil0 {fill:#0E2511}
    .fil1 {fill:#F7D596}
   ]]>
  </style>
 </defs>
 <g id="Layer_x0020_1">
  <metadata id="CorelCorpID_0Corel-Layer"/>
  <g id="_2997215752640">
   <path class="fil0" d="M0.89 0.99c-0,0 -0,0 -0,0 -0.01,0.01 -0.02,0.02 -0.03,0.03 -0.02,0.02 -0.03,0.04 -0.03,0.08 0,0.02 0.02,0.05 0.02,0.07 0.01,0.02 0,0.05 0,0.07 -0,0.04 -0,0.07 -0,0.11 0,0.03 0,0.06 0.01,0.08 0,0 0,0.02 0.01,0.02 0,0 0.03,0.01 0.04,0.01 0.05,0.02 0.11,0.05 0.12,0.11 0.02,0 0.04,0 0.05,0.02 0.01,0.01 0.01,0.03 0.01,0.04 0,0.02 -0,0.04 -0,0.06 0,0.01 -0,0.01 -0,0.02 0.01,0.01 0.02,0.02 0.02,0.02 0.02,0.02 0.03,0.04 0.05,0.05 0.02,0.02 0.07,0.07 0.05,0.11 -0.01,0.01 -0.02,0.02 -0.03,0.02l-0.88 0c-0.01,0 -0.03,-0 -0.03,-0.02 -0.02,-0.03 0.03,-0.08 0.05,-0.11 0.02,-0.02 0.03,-0.04 0.05,-0.05 0,-0.01 0.01,-0.02 0.02,-0.02 -0,-0.01 -0,-0.01 -0,-0.02 0,-0.02 -0,-0.04 -0,-0.06 0,-0.02 0,-0.03 0.01,-0.04 0.01,-0.01 0.03,-0.02 0.05,-0.02 0.02,-0.05 0.08,-0.09 0.12,-0.11 0.01,-0 0.03,-0.01 0.04,-0.01 0,-0 0.01,-0.02 0.01,-0.02 0.01,-0.03 0.01,-0.06 0.01,-0.08 0,-0.04 -0,-0.07 -0,-0.11 -0,-0.02 -0.01,-0.05 0,-0.07 0.01,-0.02 0.02,-0.05 0.02,-0.07 0,-0.03 -0.01,-0.05 -0.03,-0.08 -0.01,-0.01 -0.02,-0.02 -0.03,-0.03 -0,-0 -0,-0 -0,-0 -0,0.01 -0.01,0.02 -0.01,0.02 -0.04,0.05 -0.14,0.04 -0.18,-0.02l-0.01 -0.01 0.01 -0.01c0.01,-0.02 0.02,-0.03 0.03,-0.04l0.01 -0.01 0.01 0c0.01,0 0.03,0.02 0.04,0.02 0,-0 0,-0.01 0,-0.01 0,-0.05 -0.11,-0.15 -0.15,-0.18 -0.03,-0.03 -0.06,-0.05 -0.09,-0.08 -0.02,-0.02 -0.05,-0.04 -0.07,-0.06 -0.01,-0.01 -0.02,-0.02 -0.03,-0.03 -0.07,-0.07 -0.13,-0.16 -0.15,-0.26 -0.01,-0.07 0.01,-0.15 0.07,-0.2 0.04,-0.03 0.08,-0.05 0.13,-0.05 0.03,0 0.05,0.01 0.07,0.02 0,-0.01 0,-0.02 0,-0.03 -0,-0.03 -0,-0.07 0.04,-0.07l0.84 0c0.04,0 0.04,0.04 0.04,0.07 -0,0.01 0,0.02 0,0.03 0.02,-0.01 0.04,-0.02 0.07,-0.02 0.05,0 0.09,0.01 0.13,0.05 0.06,0.05 0.08,0.12 0.07,0.2 -0.01,0.1 -0.07,0.19 -0.15,0.26 -0.01,0.01 -0.02,0.02 -0.03,0.03 -0.02,0.02 -0.05,0.04 -0.07,0.06 -0.03,0.03 -0.06,0.05 -0.09,0.08 -0.04,0.03 -0.15,0.13 -0.15,0.18 0,0 0,0.01 0,0.01 0,-0 0.01,-0.01 0.01,-0.01 0.01,-0.01 0.02,-0.01 0.03,-0.02l0.01 -0 0.01 0.01c0.01,0.01 0.02,0.03 0.03,0.04l0.01 0.01 -0.01 0.01c-0.04,0.05 -0.14,0.07 -0.18,0.02 -0.01,-0.01 -0.01,-0.02 -0.01,-0.02zm-0.55 -0.37c-0.01,-0.03 -0.02,-0.05 -0.02,-0.08 -0.01,-0.03 -0.01,-0.06 -0.02,-0.09 -0,-0.01 -0,-0.02 -0.01,-0.04l-0.01 -0c-0.03,-0 -0.07,-0.02 -0.07,-0.05 -0,-0.01 0.01,-0.04 0.01,-0.05 0,-0.01 0,-0.02 0,-0.03 0,-0.14 -0.1,-0.07 -0.1,0.02 0,0.06 0.04,0.12 0.08,0.17 0.02,0.02 0.09,0.1 0.15,0.15zm0.84 -0.2c-0,0.01 -0,0.02 -0.01,0.04 -0.01,0.03 -0.01,0.06 -0.02,0.09 -0.01,0.03 -0.01,0.05 -0.02,0.08 0.06,-0.05 0.13,-0.13 0.15,-0.15 0.03,-0.04 0.08,-0.11 0.08,-0.17 0,-0.09 -0.1,-0.16 -0.1,-0.02 0,0.01 0,0.02 0,0.03 0,0.02 0.01,0.04 0.01,0.05 -0,0.03 -0.05,0.05 -0.07,0.05l-0.01 0z"/>
   <path class="fil1" d="M1.07 0.99c-0.01,-0.01 -0.01,-0.02 -0.03,-0.03 -0.01,0 -0.02,0.01 -0.02,0.01 -0.03,0.02 -0.05,0.02 -0.05,-0.03 0,-0.07 0.11,-0.16 0.16,-0.2 0.03,-0.03 0.06,-0.05 0.09,-0.08 0.02,-0.02 0.05,-0.04 0.07,-0.06 0.01,-0.01 0.02,-0.02 0.03,-0.03 0.07,-0.07 0.13,-0.15 0.14,-0.25 0.01,-0.06 -0.01,-0.13 -0.06,-0.17 -0.03,-0.03 -0.07,-0.04 -0.11,-0.04 -0.04,0 -0.06,0.01 -0.09,0.03l-0.01 0 -0 -0.01c-0,-0.02 -0.01,-0.04 -0,-0.06 0,-0.01 0.01,-0.05 -0.02,-0.05l-0.84 0c-0.02,0 -0.02,0.03 -0.02,0.05 0,0.02 -0,0.04 -0,0.06l-0 0.01 -0.01 -0c-0.03,-0.02 -0.05,-0.03 -0.09,-0.03 -0.04,0 -0.08,0.01 -0.11,0.04 -0.05,0.04 -0.07,0.11 -0.06,0.17 0.01,0.1 0.07,0.18 0.14,0.25 0.01,0.01 0.02,0.02 0.03,0.03 0.02,0.02 0.05,0.04 0.07,0.06 0.03,0.03 0.06,0.05 0.09,0.08 0.05,0.04 0.16,0.13 0.16,0.2 0,0.01 -0,0.03 -0.01,0.04 -0.02,0.01 -0.04,-0.02 -0.06,-0.02 -0.01,0.01 -0.02,0.02 -0.03,0.03 0.03,0.04 0.11,0.05 0.14,0.01 0.01,-0.01 0.01,-0.03 0.02,-0.05l0 -0.01 0 0c0.01,0.01 0.02,0.02 0.03,0.03 0.01,0.01 0.02,0.02 0.03,0.03 0.03,0.03 0.04,0.06 0.04,0.1 -0,0.03 -0.02,0.05 -0.02,0.08 -0,0.01 -0,0.05 0,0.06 0,0.04 0,0.08 0,0.11 -0,0.03 -0,0.06 -0.01,0.09 -0.01,0.05 -0.02,0.04 -0.06,0.05 -0.05,0.01 -0.11,0.05 -0.11,0.1l-0 0 -0 0c-0.01,0 -0.04,-0 -0.05,0.01 -0.01,0.01 -0.01,0.02 -0.01,0.03 -0,0.02 0,0.04 0,0.06 0,0 0,0.01 0,0.01 0,0 0,0 0,0.01 0,0.01 -0.02,0.03 -0.03,0.04 -0.02,0.02 -0.03,0.04 -0.05,0.06 -0.01,0.01 -0.06,0.06 -0.05,0.08 0,0 0.01,0 0.01,0l0.88 0c0,0 0.01,-0 0.01,-0 0.01,-0.01 -0.04,-0.07 -0.05,-0.08 -0.02,-0.02 -0.03,-0.04 -0.05,-0.06 -0.01,-0.01 -0.03,-0.03 -0.03,-0.04 0,-0 0,-0 0,-0.01 0,-0 0,-0.01 0,-0.01 0,-0.02 0,-0.04 0,-0.06 -0,-0.01 -0,-0.02 -0.01,-0.03 -0.01,-0.01 -0.04,-0.01 -0.05,-0.01l-0 0 -0 -0c-0,-0.05 -0.07,-0.09 -0.11,-0.1 -0.04,-0.01 -0.05,-0 -0.06,-0.05 -0.01,-0.03 -0.01,-0.06 -0.01,-0.09 -0,-0.04 0,-0.08 0,-0.11 0,-0.02 0,-0.05 0,-0.06 -0.01,-0.03 -0.02,-0.05 -0.02,-0.08 -0,-0.04 0.01,-0.07 0.04,-0.1 0.01,-0.01 0.02,-0.02 0.03,-0.03 0.01,-0.01 0.02,-0.02 0.03,-0.03l0 -0 0 0.01c0,0.02 0.01,0.04 0.02,0.05 0.03,0.04 0.11,0.02 0.14,-0.01zm-0.74 -0.9l0.82 0c0,-0.01 0,-0.02 0,-0.03l0 -0 -0.83 0 0 0c0,0.01 0,0.02 0,0.03zm0.83 0.02l-0.83 0c-0,0.01 -0,0.01 -0,0.02l-0 0 0.83 0 0 -0c-0,-0.01 -0,-0.01 -0,-0.02zm0 0.04l-0.83 0c-0,0.02 -0,0.03 0,0.05 0.01,0.06 0.01,0.12 0.02,0.18 0.01,0.07 0.02,0.14 0.05,0.21 0.02,0.05 0.04,0.11 0.07,0.16 0.02,0.03 0.13,0.21 0.17,0.21l0.24 0c0.03,0 0.15,-0.18 0.17,-0.21 0.03,-0.05 0.05,-0.1 0.07,-0.16 0.02,-0.07 0.04,-0.13 0.05,-0.21 0.01,-0.06 0.01,-0.12 0.02,-0.18 0,-0.02 0,-0.03 0,-0.05zm-0.75 1.62l0.66 0c-0.01,-0.02 -0.03,-0.04 -0.05,-0.04l-0.57 0c-0.01,0 -0.03,0.02 -0.05,0.04zm0.68 0.02l-0.7 0 -0 0c-0,0.01 -0.01,0.01 -0.01,0.02l0.73 0c-0.01,-0.01 -0.01,-0.01 -0.01,-0.02l-0 -0zm0.04 0.04l-0.78 0c-0.01,0.01 -0.02,0.02 -0.02,0.03l-0 0.01 0.83 0 -0 -0.01c-0.01,-0.01 -0.01,-0.02 -0.02,-0.03zm-0.34 -0.66l-0.11 0 0 -0c0,-0.02 0.01,-0.04 0.01,-0.06 0,-0.03 0,-0.06 -0.01,-0.09 -0.01,-0.02 -0.03,-0.03 -0.04,-0.05l-0 -0.01 0.19 0 -0 0.01c-0.01,0.02 -0.03,0.03 -0.04,0.05 -0.01,0.03 -0.02,0.05 -0.01,0.09 0,0.02 0.01,0.04 0.01,0.06l0 0zm0.02 0.3l-0.15 0 0 -0c0,-0.04 0.01,-0.07 0.01,-0.11l0 -0.12c0,-0.01 -0,-0.03 -0,-0.04l-0 -0 0 0c0.02,0 0.04,-0 0.06,-0 0.02,0 0.04,0 0.06,0l0 0 -0 0c-0,0.01 -0,0.03 -0,0.04l0 0.12c0,0.04 0.01,0.07 0.01,0.11l0 0zm0.17 0.13l-0.49 0 0 -0.01c0.02,-0.04 0.03,-0.05 0.07,-0.07 0.03,-0.01 0.07,-0.03 0.11,-0.03 0.02,0 0.04,-0 0.06,-0 0.02,0 0.04,0 0.06,0 0.03,0 0.08,0.02 0.11,0.03 0.04,0.02 0.05,0.03 0.07,0.07l0 0.01zm0.06 0.1l-0.61 0 0 -0.08 0.61 0 0 0.08zm-0.75 -1.32l0.02 -0.05 0 0.01c0,0.03 0.01,0.06 0.01,0.09 0.01,0.03 0.01,0.06 0.02,0.09 0.01,0.05 0.03,0.11 0.06,0.15l0 0.01 -0.01 -0c-0.03,-0.01 -0.2,-0.17 -0.22,-0.21 -0.04,-0.05 -0.08,-0.12 -0.08,-0.18 0,-0.13 0.16,-0.2 0.16,-0.02 0,0.01 -0,0.02 -0,0.03 -0,0.01 -0.01,0.04 -0.01,0.05 0,0.02 0.04,0.03 0.05,0.03zm-0.21 -0.21c0.04,-0.05 0.11,-0.08 0.17,-0.05 0.04,0.02 0.06,0.07 0.05,0.12l-0.02 0.09c-0.01,0.02 0,0.01 -0.02,0.02l-0.01 0 0 -0.01c0,-0.01 0,-0.02 0.01,-0.04 0,-0.02 0.01,-0.04 0,-0.07 -0,-0.04 -0.02,-0.08 -0.05,-0.09 -0.04,-0.02 -0.09,0.01 -0.12,0.05 -0.04,0.06 -0.03,0.13 -0,0.19 0.01,0.03 0.03,0.05 0.04,0.07 0,0 0.03,0.05 0.08,0.09 0.06,0.06 0.14,0.13 0.14,0.13 0,0 -0,0 -0,0 -0,0 -0.07,-0.05 -0.13,-0.11 -0.05,-0.05 -0.09,-0.1 -0.09,-0.11 -0.03,-0.04 -0.05,-0.08 -0.06,-0.12 -0.02,-0.06 -0.02,-0.13 0.02,-0.18zm1.11 0.21c0.01,-0 0.05,-0.02 0.05,-0.03 0,-0.01 -0.01,-0.04 -0.01,-0.05 -0,-0.01 -0,-0.02 -0,-0.03 0,-0.17 0.16,-0.11 0.16,0.02 0,0.06 -0.04,0.13 -0.08,0.18 -0.03,0.03 -0.19,0.2 -0.22,0.21l-0.01 0 0 -0.01c0.03,-0.05 0.04,-0.1 0.06,-0.15 0.01,-0.03 0.01,-0.06 0.02,-0.09 0.01,-0.03 0.01,-0.06 0.01,-0.09l0 -0.01 0.02 0.05zm0.21 -0.21c0.01,0.02 0.02,0.04 0.03,0.07 0.01,0.04 0,0.08 -0.01,0.12 -0.01,0.04 -0.04,0.09 -0.06,0.12 -0,0 -0.03,0.05 -0.08,0.09 -0.06,0.05 -0.13,0.11 -0.13,0.1 -0,-0 -0,-0 -0,-0 0,-0 0.07,-0.05 0.12,-0.1 0.05,-0.04 0.08,-0.1 0.08,-0.1 0.01,-0.02 0.03,-0.05 0.04,-0.07 0.03,-0.06 0.04,-0.14 -0,-0.19 -0.03,-0.04 -0.07,-0.06 -0.12,-0.05 -0.04,0.01 -0.05,0.05 -0.05,0.09 -0,0.02 0,0.04 0,0.07 0,0.01 0,0.02 0.01,0.04l0 0.01 -0.01 -0c-0.02,-0.01 -0.01,-0 -0.02,-0.02l-0.02 -0.09c-0,-0.05 0.01,-0.09 0.05,-0.12 0.06,-0.03 0.13,0 0.17,0.05z"/>
  </g>
 </g>
</svg>
