<?xml version="1.0" encoding="UTF-8"?>
<!DOCTYPE svg PUBLIC "-//W3C//DTD SVG 1.1//EN" "http://www.w3.org/Graphics/SVG/1.1/DTD/svg11.dtd">
<!-- Creator: CorelDRAW 2019 (64-Bit) -->
<svg xmlns="http://www.w3.org/2000/svg" xml:space="preserve" width="54px" height="70px" version="1.1" style="shape-rendering:geometricPrecision; text-rendering:geometricPrecision; image-rendering:optimizeQuality; fill-rule:evenodd; clip-rule:evenodd"
viewBox="0 0 0.07 0.09"
 xmlns:xlink="http://www.w3.org/1999/xlink"
 xmlns:xodm="http://www.corel.com/coreldraw/odm/2003">
 <defs>
  <style type="text/css">
   <![CDATA[
    .fil0 {fill:#0E2511}
    .fil1 {fill:#F7D596}
   ]]>
  </style>
 </defs>
 <g id="Layer_x0020_1">
  <metadata id="CorelCorpID_0Corel-Layer"/>
  <g id="_2997038400560">
   <path class="fil0" d="M0.04 0.05c0,0 0,0 0,0 0,0 0,0 0,0 0,0 0,0 0,0 0,0 0,0 0,0 0,0 0,0.01 0,0.01 0,0 0,0 0,0 0,0 0,0 0,0.01 0,0 0,0 0,0 0,0 0,0 0,0 0,0 0.01,0 0.01,0 0,0 0,0 0,0 0,0 0,0 0,0.01 0,0 0,0 0,0 0,0 0,0 0,0 0,0 0,0 0,0 0,0 0,0 0,0 0,0 0.01,0.01 0.01,0.01 0,0 -0.01,0 -0.01,0l-0.04 0c0,0 0,0 0,0 0,0 0,-0.01 0,-0.01 0.01,0 0.01,0 0.01,0 0,0 0,0 0,0 0,0 0,0 0,0 0,0 0,0 0,0 0,-0.01 0,-0.01 0,-0.01 0,0 0,0 0,0 0,0 0,0 0.01,0 0,0 0,0 0,0 0,0 0,0 0,0 0,-0.01 0,-0.01 0,-0.01 0,0 0,0 0,0 0,0 0,-0.01 0,-0.01 0,0 0,0 0,0 0,0 0,0 0,0 0,0 0,0 0,0 0,0 0,0 0,0 0,0 0,0 0,0 -0.01,0 -0.01,0 -0.01,0l0 0 0 -0.01c0,0 0,0 0,0l0 0 0 0c0,0 0,0 0,0 0,0 0,0 0,0 0,0 0,0 0,-0.01 -0.01,0 -0.01,0 -0.01,0 0,0 0,0 0,0 0,0 0,0 0,0 -0.01,-0.01 -0.01,-0.01 -0.01,-0.02 0,0 0,0 0,0 0,-0.01 0.01,-0.01 0.01,-0.01 0,0 0,0 0,0 0,0 0,0 0,0 0,0 0,0 0,0l0.04 0c0.01,0 0.01,0 0.01,0 0,0 0,0 0,0 0,0 0,0 0,0 0,0 0,0 0,0.01 0.01,0 0.01,0 0.01,0 0,0.01 -0.01,0.01 -0.01,0.02 0,0 0,0 0,0 0,0 0,0 0,0 -0.01,0 -0.01,0 -0.01,0 0,0.01 0,0.01 0,0.01 0,0 0,0 0,0 0,0 0,0 0,0 0,0 0,0 0,0l0 0 0 0c0,0 0,0 0,0l0 0.01 0 0c0,0 -0.01,0 -0.01,0 0,0 0,0 0,0zm-0.02 -0.02c0,0 0,0 -0.01,-0.01 0,0 0,0 0,0 0,0 0,0 0,0l0 0c0,0 0,0 0,0 0,0 0,-0.01 0,-0.01 0,0 0,0 0,0 0,0 0,0 0,0 0,0.01 0,0.01 0,0.01 0,0 0,0.01 0.01,0.01zm0.03 -0.01c0,0 0,0 0,0 0,0 0,0 0,0 0,0.01 0,0.01 0,0.01 0,0 0.01,-0.01 0.01,-0.01 0,0 0,0 0,-0.01 0,0 0,0 0,0 0,0 0,0 0,0 0,0 0,0.01 0,0.01 0,0 0,0 -0.01,0l0 0z"/>
   <path class="fil1" d="M0.05 0.05c0,-0.01 0,-0.01 0,-0.01 0,0 0,0 0,0 0,0.01 -0.01,0 -0.01,0 0,0 0.01,0 0.01,-0.01 0,0 0,0 0.01,0 0,0 0,0 0,0 0,0 0,0 0,0 0,-0.01 0.01,-0.01 0.01,-0.02 0,0 0,0 -0.01,0 0,0 0,-0.01 0,-0.01 0,0 0,0.01 -0.01,0.01l0 0 0 0c0,0 0,-0.01 0,-0.01 0,0 0,0 0,0l-0.04 0c0,0 0,0 0,0 0,0 0,0.01 0,0.01l0 0 0 0c0,0 0,-0.01 0,-0.01 0,0 0,0.01 -0.01,0.01 0,0 0,0 0,0 0,0.01 0,0.01 0.01,0.02 0,0 0,0 0,0 0,0 0,0 0,0 0,0 0.01,0 0.01,0 0,0.01 0,0.01 0,0.01 0,0 0,0 0,0 0,0.01 0,0 0,0 0,0 0,0 0,0.01 0,0 0,0 0.01,0 0,0 0,-0.01 0,-0.01l0 0 0 0c0,0 0,0 0,0 0,0.01 0,0.01 0,0.01 0,0 0,0 0,0 0,0 0,0 0,0 0,0 0,0.01 0,0.01 0,0 0,0 0,0 0,0 0,0.01 0,0.01 0,0 0,0 0,0 -0.01,0 -0.01,0 -0.01,0l0 0 0 0c0,0 0,0 0,0 0,0 0,0.01 0,0.01 0,0 0,0 0,0 0,0 0,0 0,0 0,0 0,0 0,0 0,0 0,0 0,0 0,0 0,0 0,0 0,0 -0.01,0.01 -0.01,0.01 0,0 0,0 0,0l0.04 0c0,0 0,0 0,0 0,0 0,-0.01 0,-0.01 0,0 0,0 0,0 0,0 0,0 0,0 0,0 0,0 0,0 0,0 0,0 0,0 0,0 0,0 0,0 0,0 0,-0.01 0,-0.01 0,0 0,0 0,0l0 0 0 0c0,0 -0.01,0 -0.01,0 0,0 0,0 0,0 0,0 0,-0.01 0,-0.01 0,0 0,0 0,0 0,0 0,-0.01 0,-0.01 0,0 0,0 0,0 0,0 0,0 0,0 0,0 0,0 0,-0.01 0,0 0,0 0,0l0 0 0 0c0,0 0,0.01 0,0.01 0,0 0.01,0 0.01,0zm-0.03 -0.05l0.03 0c0,0 0,0 0,0l0 0 -0.03 0 0 0c0,0 0,0 0,0zm0.03 0l-0.04 0c0,0.01 0,0.01 0,0.01l0 0 0.04 0 0 0c0,0 0,0 0,-0.01zm0 0.01l-0.04 0c0,0 0,0 0,0 0.01,0 0.01,0 0.01,0.01 0,0 0,0 0,0.01 0,0 0,0 0,0 0,0.01 0.01,0.01 0.01,0.01l0.01 0c0,0 0.01,0 0.01,-0.01 0,0 0,0 0,0 0,-0.01 0,-0.01 0,-0.01 0,-0.01 0,-0.01 0,-0.01 0,0 0,0 0,0zm-0.03 0.07l0.03 0c0,0 0,0 0,0l-0.03 0c0,0 0,0 0,0zm0.03 0l-0.03 0 0 0c0,0 0,0 0,0l0.03 0c0,0 0,0 0,0l0 0zm0 0l-0.03 0c0,0 0,0.01 0,0.01l-0.01 0 0.04 0 0 0c0,0 0,-0.01 0,-0.01zm-0.01 -0.03l-0.01 0 0 0c0,0 0,0 0,0 0,0 0,0 0,0 0,0 0,0 0,-0.01l0 0 0.01 0 0 0c0,0.01 0,0.01 0,0.01 0,0 0,0 0,0 0,0 0,0 0,0l0 0zm0 0.02l-0.01 0 0 0c0,0 0,-0.01 0,-0.01l0 0c0,0 0,0 0,0l0 0 0 0c0,0 0,0 0,0 0,0 0.01,0 0.01,0l0 0 0 0c0,0 0,0 0,0l0 0c0,0 0,0.01 0,0.01l0 0zm0.01 0l-0.03 0 0 0c0,0 0,0 0.01,0 0,0 0,0 0,0 0,0 0,0 0,0 0,0 0.01,0 0.01,0 0,0 0,0 0,0 0,0 0,0 0,0l0.01 0zm0 0.01l-0.03 0 0 -0.01 0.03 0 0 0.01zm-0.04 -0.06l0 0 0 0c0,0 0,0 0,0 0.01,0 0.01,0 0.01,0 0,0.01 0,0.01 0,0.01l0 0 0 0c0,0 -0.01,-0.01 -0.01,-0.01 0,0 -0.01,0 -0.01,-0.01 0,0 0.01,0 0.01,0 0,0 0,0 0,0 0,0 0,0.01 0,0.01 0,0 0,0 0,0zm-0.01 -0.01c0.01,0 0.01,-0.01 0.01,0 0,0 0,0 0,0l0 0.01c0,0 0,0 0,0l0 0 0 0c0,0 0,0 0,-0.01 0,0 0,0 0,0 0,0 0,0 0,0 0,0 0,0 -0.01,0 0,0 0,0.01 0,0.01 0.01,0 0.01,0 0.01,0 0,0 0,0 0,0.01 0,0 0.01,0 0.01,0 0,0 0,0 0,0 0,0 -0.01,0 -0.01,0 0,0 0,-0.01 0,-0.01 -0.01,0 -0.01,0 -0.01,0 0,-0.01 0,-0.01 0,-0.01zm0.05 0.01c0.01,0 0.01,0 0.01,0 0,0 0,-0.01 0,-0.01 0,0 0,0 0,0 0,0 0,0 0,0 0,0.01 0,0.01 0,0.01 0,0 -0.01,0.01 -0.01,0.01l0 0 0 0c0,0 0,0 0,-0.01 0,0 0,0 0,0 0,0 0,0 0,0l0 0 0 0zm0.01 -0.01c0,0 0.01,0 0.01,0 0,0 0,0.01 -0.01,0.01 0,0 0,0 0,0 0,0 0,0 0,0.01 0,0 -0.01,0 -0.01,0 0,0 0,0 0,0 0,0 0.01,0 0.01,0 0,-0.01 0,-0.01 0,-0.01 0,0 0,0 0,0 0,0 0.01,-0.01 0,-0.01 0,0 0,0 0,0 0,0 0,0 0,0 0,0 0,0 0,0 0,0.01 0,0.01 0,0.01l0 0 0 0c-0.01,0 0,0 -0.01,0l0 -0.01c0,0 0,0 0.01,0 0,-0.01 0,0 0,0z"/>
  </g>
 </g>
</svg>
