<?xml version="1.0" encoding="UTF-8"?>
<!DOCTYPE svg PUBLIC "-//W3C//DTD SVG 1.1//EN" "http://www.w3.org/Graphics/SVG/1.1/DTD/svg11.dtd">
<!-- Creator: CorelDRAW 2019 (64-Bit) -->
<svg xmlns="http://www.w3.org/2000/svg" xml:space="preserve" width="49.5825mm" height="64.4527mm" version="1.1" style="shape-rendering:geometricPrecision; text-rendering:geometricPrecision; image-rendering:optimizeQuality; fill-rule:evenodd; clip-rule:evenodd"
viewBox="0 0 66.94 87.02"
 xmlns:xlink="http://www.w3.org/1999/xlink"
 xmlns:xodm="http://www.corel.com/coreldraw/odm/2003">
 <defs>
  <style type="text/css">
   <![CDATA[
    .fil0 {fill:#0E2511}
    .fil1 {fill:#F7D596}
   ]]>
  </style>
 </defs>
 <g id="Layer_x0020_1">
  <metadata id="CorelCorpID_0Corel-Layer"/>
  <g id="_2997038389648">
   <path class="fil0" d="M40.32 44.9c-0.06,0.06 -0.13,0.13 -0.19,0.19 -0.44,0.43 -0.88,0.85 -1.31,1.29 -0.96,0.96 -1.57,2.01 -1.43,3.4 0.11,1.11 0.68,2.28 0.99,3.36 0.25,0.89 0.06,2.33 0.01,3.29 -0.08,1.68 -0.15,3.37 -0.09,5.06 0.05,1.27 0.15,2.56 0.45,3.8 0.05,0.2 0.22,0.95 0.35,1.11 0.18,0.11 1.33,0.37 1.61,0.47 2.26,0.74 4.94,2.41 5.65,4.82 0.89,0.02 1.86,0.13 2.44,0.74 0.51,0.53 0.6,1.25 0.63,1.95 0.04,0.92 -0.01,1.84 -0.01,2.76 0,0.27 -0.02,0.53 -0.1,0.79 0.27,0.37 0.71,0.84 0.93,1.11 0.69,0.85 1.47,1.63 2.21,2.44 0.92,1.01 3.27,3.36 2.44,4.8 -0.33,0.57 -0.95,0.76 -1.56,0.76l-39.69 0c-0.62,0 -1.23,-0.19 -1.56,-0.76 -0.84,-1.45 1.51,-3.8 2.44,-4.81 0.74,-0.81 1.52,-1.59 2.21,-2.44 0.22,-0.27 0.66,-0.74 0.93,-1.11 -0.08,-0.25 -0.1,-0.52 -0.1,-0.79 0,-0.92 -0.04,-1.83 -0.01,-2.75 0.03,-0.7 0.13,-1.42 0.63,-1.95 0.58,-0.61 1.55,-0.72 2.44,-0.74 0.72,-2.42 3.4,-4.08 5.65,-4.82 0.28,-0.09 1.43,-0.35 1.61,-0.46 0.13,-0.16 0.3,-0.91 0.35,-1.11 0.29,-1.24 0.4,-2.53 0.45,-3.8 0.06,-1.69 -0.01,-3.37 -0.09,-5.06 -0.05,-0.96 -0.24,-2.39 0.01,-3.29 0.3,-1.08 0.87,-2.25 0.99,-3.36 0.14,-1.39 -0.47,-2.44 -1.43,-3.4 -0.43,-0.43 -0.87,-0.86 -1.31,-1.29 -0.06,-0.06 -0.13,-0.13 -0.19,-0.19 -0.15,0.38 -0.34,0.74 -0.62,1.07 -1.97,2.33 -6.52,1.66 -8.22,-0.68l-0.43 -0.59 0.35 -0.64c0.39,-0.72 0.81,-1.34 1.42,-1.89l0.51 -0.46 0.65 0.22c0.43,0.15 1.4,0.79 1.89,1.01 0.03,-0.19 0.03,-0.43 0.03,-0.54 0,-2.4 -4.94,-6.62 -6.67,-8.11 -1.35,-1.15 -2.73,-2.27 -4.09,-3.41 -1.11,-0.92 -2.23,-1.84 -3.25,-2.87 -0.52,-0.52 -1.04,-1.04 -1.55,-1.56 -3.2,-3.2 -6.06,-7.37 -6.57,-11.97 -0.36,-3.27 0.6,-6.68 3.18,-8.85 1.67,-1.4 3.76,-2.08 5.92,-2.08 1.5,0 2.4,0.28 3.39,0.84 0.04,-0.39 0.07,-0.78 0.07,-1.17 -0.03,-1.35 -0.08,-3.23 1.89,-3.23l37.91 0c1.97,0 1.91,1.88 1.89,3.23 -0.01,0.39 0.03,0.78 0.07,1.17 0.99,-0.56 1.89,-0.84 3.39,-0.84 2.17,0 4.26,0.68 5.92,2.08 2.57,2.16 3.54,5.58 3.18,8.85 -0.51,4.6 -3.36,8.77 -6.56,11.97 -0.52,0.52 -1.04,1.03 -1.55,1.56 -1.02,1.03 -2.13,1.95 -3.25,2.87 -1.37,1.13 -2.75,2.25 -4.1,3.41 -1.74,1.49 -6.67,5.71 -6.67,8.11 0,0.11 0.01,0.34 0.03,0.53 0.22,-0.09 0.48,-0.24 0.6,-0.3 0.44,-0.26 0.82,-0.53 1.31,-0.69l0.64 -0.22 0.5 0.46c0.61,0.55 1.04,1.17 1.42,1.89l0.35 0.64 -0.43 0.59c-1.7,2.34 -6.25,3.01 -8.22,0.68 -0.28,-0.33 -0.47,-0.69 -0.62,-1.07zm-24.69 -16.76c-0.43,-1.19 -0.79,-2.4 -1.09,-3.63 -0.33,-1.32 -0.63,-2.65 -0.9,-3.99 -0.11,-0.53 -0.21,-1.06 -0.31,-1.59l-0.43 -0.07c-1.18,-0.2 -3.02,-1.09 -3.23,-2.39 -0.11,-0.65 0.25,-1.76 0.38,-2.44 0.07,-0.41 0.15,-0.83 0.15,-1.25 0,-6.33 -4.69,-3.01 -4.69,1.11 0,2.59 1.89,5.56 3.44,7.53 0.78,0.99 4.16,4.41 6.69,6.71zm37.99 -9.2c-0.1,0.53 -0.2,1.06 -0.31,1.59 -0.27,1.34 -0.57,2.66 -0.9,3.99 -0.3,1.22 -0.66,2.43 -1.09,3.61 2.55,-2.31 5.91,-5.71 6.69,-6.69 1.55,-1.97 3.44,-4.95 3.44,-7.53 0,-4.12 -4.69,-7.45 -4.69,-1.11 0,0.41 0.07,0.84 0.15,1.25 0.12,0.68 0.48,1.79 0.38,2.44 -0.21,1.3 -2.05,2.2 -3.23,2.39l-0.42 0.07z"/>
   <path class="fil1" d="M48.22 44.61c-0.32,-0.6 -0.67,-1.12 -1.18,-1.58 -0.37,0.13 -0.75,0.39 -1.09,0.59 -1.56,0.92 -2.38,0.74 -2.38,-1.23 0,-2.95 4.96,-7.17 7.08,-8.99 1.35,-1.16 2.74,-2.28 4.11,-3.42 1.08,-0.9 2.17,-1.79 3.16,-2.79 0.52,-0.52 1.04,-1.04 1.56,-1.56 3,-3 5.75,-6.95 6.23,-11.27 0.32,-2.89 -0.49,-5.92 -2.77,-7.83 -1.46,-1.23 -3.28,-1.81 -5.18,-1.81 -1.9,0 -2.62,0.51 -4.14,1.53l-0.25 0.17 -0.01 -0.31c-0.02,-0.97 -0.24,-1.93 -0.22,-2.9 0.01,-0.63 0.26,-2.05 -0.73,-2.05l-37.91 0c-0.99,0 -0.74,1.42 -0.73,2.05 0.02,0.97 -0.2,1.93 -0.22,2.9l-0.01 0.31 -0.25 -0.17c-1.52,-1.02 -2.24,-1.53 -4.14,-1.53 -1.89,0 -3.72,0.58 -5.18,1.81 -2.29,1.93 -3.09,4.94 -2.77,7.83 0.48,4.32 3.23,8.28 6.23,11.28 0.52,0.52 1.04,1.04 1.56,1.56 0.99,1 2.08,1.89 3.16,2.79 1.37,1.14 2.75,2.26 4.11,3.42 2.12,1.82 7.08,6.04 7.08,8.99 0,0.56 -0.05,1.49 -0.67,1.72 -0.82,0.31 -2.01,-0.82 -2.79,-1.09 -0.51,0.46 -0.86,0.98 -1.18,1.58 1.26,1.73 4.92,2.35 6.4,0.61 0.49,-0.58 0.65,-1.48 0.81,-2.2l0.06 -0.25 0.21 0.15c0.52,0.38 0.96,0.88 1.43,1.33 0.44,0.43 0.89,0.86 1.32,1.3 1.21,1.21 1.95,2.59 1.77,4.34 -0.13,1.25 -0.69,2.36 -1.02,3.55 -0.18,0.63 -0,2.21 0.03,2.92 0.09,1.72 0.15,3.44 0.09,5.16 -0.05,1.35 -0.17,2.71 -0.48,4.03 -0.53,2.23 -0.78,1.77 -2.72,2.41 -2.04,0.67 -4.84,2.34 -5.03,4.73l-0.01 0.15 -0.15 0c-0.59,0 -2,-0.06 -2.42,0.38 -0.27,0.28 -0.3,0.83 -0.31,1.19 -0.04,0.9 0.01,1.8 0.01,2.71 0,0.17 0.01,0.38 0.09,0.53 0.04,0.09 0.11,0.15 0.13,0.24 0.08,0.31 -1.07,1.57 -1.3,1.85 -0.71,0.87 -1.5,1.66 -2.26,2.49 -0.42,0.46 -2.64,2.83 -2.29,3.44 0.09,0.16 0.39,0.18 0.56,0.18l39.69 0c0.16,0 0.47,-0.02 0.56,-0.18 0.35,-0.61 -1.86,-2.98 -2.29,-3.44 -0.76,-0.83 -1.55,-1.62 -2.26,-2.49 -0.23,-0.28 -1.38,-1.54 -1.3,-1.85 0.03,-0.1 0.09,-0.16 0.13,-0.24 0.07,-0.15 0.09,-0.36 0.09,-0.53 0,-0.9 0.05,-1.8 0.01,-2.71 -0.02,-0.37 -0.05,-0.92 -0.31,-1.19 -0.42,-0.44 -1.83,-0.38 -2.42,-0.38l-0.15 0 -0.01 -0.15c-0.19,-2.38 -2.99,-4.06 -5.03,-4.73 -1.94,-0.64 -2.19,-0.17 -2.72,-2.41 -0.31,-1.32 -0.43,-2.68 -0.48,-4.03 -0.06,-1.72 0.01,-3.44 0.09,-5.16 0.04,-0.71 0.21,-2.29 0.03,-2.92 -0.34,-1.2 -0.9,-2.3 -1.02,-3.55 -0.18,-1.75 0.55,-3.13 1.77,-4.34 0.44,-0.44 0.88,-0.87 1.32,-1.3 0.46,-0.45 0.91,-0.95 1.43,-1.33l0.21 -0.15 0.06 0.25c0.17,0.72 0.32,1.62 0.81,2.2 1.47,1.74 5.14,1.12 6.4,-0.61zm-33.41 -40.83l37.32 0c0,-0.49 0.02,-0.97 0.02,-1.45l0 -0.17 -37.35 0 0 0.17c0,0.48 0.01,0.97 0.02,1.45zm37.34 1.1l-37.36 0c-0.02,0.3 -0.04,0.59 -0.09,0.89l-0 0 37.54 0 -0 -0c-0.04,-0.29 -0.07,-0.59 -0.09,-0.89zm0.21 1.99l-37.78 0c-0.05,0.71 -0.05,1.43 0.01,2.13 0.23,2.74 0.37,5.49 0.7,8.22 0.37,3.17 1.05,6.27 2.11,9.28 0.85,2.41 1.85,4.92 3.17,7.11 0.87,1.44 6.08,9.39 7.53,9.39l10.75 0c1.46,0 6.67,-7.95 7.53,-9.39 1.32,-2.19 2.32,-4.7 3.17,-7.11 1.06,-3.01 1.73,-6.11 2.11,-9.28 0.32,-2.73 0.47,-5.48 0.7,-8.22 0.06,-0.7 0.06,-1.42 0.01,-2.13zm-33.87 73.4l29.97 0c-0.68,-0.85 -1.51,-1.76 -2.04,-1.76l-25.88 0c-0.53,0 -1.36,0.92 -2.04,1.76zm30.82 1.1l-31.67 0 -0.1 0.12c-0.21,0.26 -0.44,0.52 -0.67,0.76l33.2 0c-0.23,-0.25 -0.46,-0.5 -0.67,-0.76l-0.1 -0.12zm1.81 1.99l-35.3 0c-0.36,0.39 -0.7,0.79 -1,1.23l-0.18 0.26 37.64 0 -0.18 -0.26c-0.3,-0.44 -0.64,-0.84 -1,-1.23zm-15.22 -29.9l-4.86 0 0 -0.17c0.02,-0.98 0.42,-1.92 0.57,-2.88 0.22,-1.38 0.02,-2.62 -0.62,-3.87 -0.44,-0.85 -1.18,-1.49 -1.7,-2.28l-0.18 -0.26 8.71 0 -0.18 0.26c-0.53,0.79 -1.27,1.42 -1.7,2.28 -0.64,1.25 -0.84,2.49 -0.62,3.87 0.15,0.96 0.55,1.9 0.57,2.88l0 0.17zm0.89 13.58l-6.64 0 0 -0.17c0.04,-1.66 0.67,-3.23 0.67,-4.89l0 -5.34c0,-0.67 -0.21,-1.33 -0.22,-2l-0 -0.17 0.17 0c0.9,0 1.8,-0.02 2.71,-0.05 0.9,0.03 1.8,0.05 2.7,0.05l0.17 0 -0 0.17c-0.02,0.67 -0.22,1.33 -0.22,2l0 5.34c0,1.66 0.63,3.24 0.67,4.89l0 0.17zm7.66 5.79l-21.97 0 0.12 -0.24c0.87,-1.81 1.19,-2.27 3.04,-3.13 1.4,-0.64 3.35,-1.42 4.9,-1.42 0.98,0 1.95,-0.03 2.93,-0.05 0.97,0.02 1.95,0.05 2.92,0.05 1.55,0 3.5,0.78 4.9,1.42 1.85,0.85 2.18,1.32 3.04,3.13l0.12 0.24zm2.79 4.67l-27.56 0 0 -3.68 27.56 0 0 3.68zm-34.16 -59.79l1.04 -2.06 0.03 0.63c0.07,1.34 0.34,2.68 0.61,4 0.27,1.32 0.57,2.63 0.89,3.94 0.6,2.41 1.41,4.75 2.57,6.95l0.18 0.34 -0.37 -0.1c-1.36,-0.36 -8.84,-7.78 -10.01,-9.28 -1.73,-2.21 -3.69,-5.36 -3.69,-8.25 0,-5.92 7.01,-8.88 7.01,-1.11 0,0.49 -0.08,0.98 -0.16,1.45 -0.07,0.41 -0.42,1.74 -0.37,2.05 0.11,0.69 1.62,1.33 2.27,1.43zm-9.39 -9.28c1.68,-2.19 5.07,-3.56 7.67,-2.23 1.98,1.01 2.54,3.18 2.44,5.26l-0.8 3.93c-0.32,0.8 0.08,0.62 -0.89,0.88l-0.23 0.06 0.02 -0.24c0.05,-0.55 0.13,-1.09 0.23,-1.63 0.17,-1.01 0.27,-2 0.22,-3.03 -0.08,-1.71 -0.72,-3.54 -2.48,-4.14 -1.99,-0.68 -4.13,0.55 -5.27,2.16 -1.86,2.62 -1.41,6.03 -0.16,8.81 0.53,1.18 1.14,2.33 1.92,3.37 0.12,0.16 1.55,2.22 3.47,4.16 2.74,2.77 6.22,5.68 6.24,5.86 0.01,0.08 -0.01,0.17 -0.08,0.22 -0.23,0.17 -3.38,-2.28 -5.94,-4.83 -2.3,-2.29 -4.04,-4.69 -4.16,-4.85 -1.22,-1.68 -2.27,-3.58 -2.94,-5.55 -0.93,-2.74 -1.1,-5.82 0.75,-8.22zm50.16 9.28c0.65,-0.11 2.16,-0.74 2.27,-1.43 0.05,-0.31 -0.3,-1.64 -0.37,-2.05 -0.09,-0.48 -0.16,-0.97 -0.16,-1.45 0,-7.77 7.01,-4.8 7.01,1.11 0,2.89 -1.96,6.04 -3.69,8.25 -1.17,1.49 -8.65,8.91 -10.01,9.28l-0.37 0.1 0.18 -0.34c1.16,-2.2 1.97,-4.54 2.57,-6.95 0.32,-1.31 0.62,-2.62 0.89,-3.94 0.27,-1.32 0.54,-2.65 0.61,-4l0.03 -0.63 1.04 2.06zm9.39 -9.28c0.68,0.88 1.11,1.88 1.31,2.97 0.32,1.75 0,3.58 -0.56,5.25 -0.67,1.97 -1.72,3.87 -2.94,5.55 -0.1,0.14 -1.56,2.27 -3.54,4.19 -2.56,2.48 -5.8,4.86 -6.04,4.67 -0.07,-0.05 -0.1,-0.14 -0.08,-0.22 0.04,-0.15 3.06,-2.29 5.5,-4.68 2.05,-2.01 3.58,-4.32 3.69,-4.51 0.66,-1.12 1.39,-2.19 1.92,-3.37 1.24,-2.78 1.7,-6.19 -0.16,-8.81 -1.14,-1.61 -3.28,-2.84 -5.27,-2.16 -1.77,0.6 -2.4,2.43 -2.48,4.14 -0.05,1.03 0.05,2.01 0.22,3.03 0.09,0.54 0.18,1.08 0.23,1.63l0.02 0.24 -0.23 -0.06c-0.97,-0.26 -0.57,-0.09 -0.9,-0.91l-0.79 -3.92c-0.1,-2.06 0.47,-4.22 2.44,-5.23 2.6,-1.33 5.99,0.04 7.67,2.23z"/>
  </g>
 </g>
</svg>
